<svg width="759" height="53" viewBox="0 0 759 53" fill="none" xmlns="http://www.w3.org/2000/svg">
<g filter="url(#filter0_d_2250_36)">
<path d="M753.95 34.6709C753.57 34.4809 753.12 34.2109 752.9 34.0209C751.61 32.7609 747.39 31.8109 746.4 32.4809C744.86 33.5109 743.4 32.8609 742.57 32.3809C741.7 31.8609 740.84 31.7309 740.4 32.1709C739.53 33.0509 738.33 32.6609 737.34 32.5909C735.99 32.4809 735.21 32.6709 734.39 33.2409C733.26 34.0209 732.44 34.0009 731.7 33.1909C730.68 32.0809 728.71 32.8709 727.28 32.6809C726.13 32.5309 726.52 33.2109 726.41 33.6009C726.26 34.1809 724.45 34.6509 724.2 34.3609C723.28 33.2809 722.09 33.9609 720.97 34.2609C719.86 34.5609 718.79 34.9009 717.71 35.2109C717.06 35.4009 716.55 35.6309 715.8 35.2309C715.48 35.0609 714.52 35.1409 713.86 35.0809C713.16 35.0209 712.32 35.0009 711.81 34.8209C708.9 33.7909 707.39 33.7809 704.94 34.8209C704.58 34.9709 704.09 35.0609 703.69 35.2009C701.72 35.8609 700.76 35.8509 698.77 35.2909C697.42 34.9209 695.91 34.6009 694.41 34.2909C694.07 34.2209 693.34 34.4209 693.04 34.6109C691.54 35.5209 691.32 35.7009 689.82 34.7209C688.72 33.9809 687.99 33.9509 686.93 34.1709C686.17 34.3109 685.48 34.5809 684.67 34.6609C683.9 34.7509 682.58 34.8309 682.26 34.5409C680.91 33.3409 679.59 33.6009 678.15 33.5509C676.11 33.4609 674.04 33.2909 672 32.9309C669.94 32.5909 667.96 31.9609 665.89 32.1709C664.71 32.3009 663.85 31.7309 662.89 30.5709C662.24 29.8209 661.6 28.6609 660.82 27.9009C660.42 27.5309 659.98 27.2809 659.44 27.2709C659.22 27.2709 658.76 27.2809 658.36 27.3909C657.95 27.4909 657.52 27.6709 657.08 27.9409C656.99 28.0009 656.2 27.5809 656.12 27.3509C655.35 25.0009 653.24 25.4009 651.88 26.1509C648.58 27.6809 645.47 28.0309 642.18 27.1209C640.23 26.6209 638.78 26.1609 637.49 27.9409C637.17 28.3709 635.98 28.7109 635.42 28.5509C631.84 27.6009 628.86 28.9109 625.92 30.3009C625.28 30.5909 623.58 30.6309 623.49 30.4709C622.72 29.0609 621.26 30.2409 620.83 30.5009C619.3 31.4609 617.61 31.8409 615.88 32.0709C614.16 32.2909 612.36 32.3709 610.7 32.5009C610.01 32.5509 608.83 32.0109 608.17 32.2009C605.82 32.8409 603.33 33.0509 601.32 34.3009C600.27 34.9309 598.53 35.6709 597.4 35.9109C595.8 36.2509 594.77 36.7509 593.43 37.4709C592.03 38.2109 590.56 38.9509 589.03 39.2509C588.25 39.3409 587.52 39.4709 586.68 39.4209C585.85 39.3709 585.01 39.2609 584.17 39.0809C583.76 39.0009 582.5 39.0809 582.13 39.2109C579.86 40.0609 577.43 39.5609 575.02 39.2409C574.62 39.1909 574.19 39.0809 573.84 39.0909C572.39 39.1609 570.7 39.1309 569.57 39.3509C567.52 39.7709 565.47 39.5809 563.87 39.0909C561.23 38.2409 559.13 39.0509 556.76 38.7809C554.74 39.7109 552.41 39.6009 549.69 38.6709C549.11 38.4709 547.79 38.4009 547.2 38.5209C545.56 38.8709 543.94 38.6909 542.2 38.3609C541.74 38.2709 541.14 38.2509 540.73 38.3109C540.06 38.4109 539.66 38.5709 538.85 38.1709C537.22 37.3709 535.46 37.3409 533.37 37.4609C530.67 37.6109 527.78 38.0309 524.83 36.8509C524.16 36.5809 522.53 36.5009 522.1 36.7409C520.48 37.6609 519.56 37.2609 518.28 36.2009C517.26 35.3509 515.62 35.2809 514.16 35.7309C512.91 36.1209 511.57 36.4509 510.16 36.6309C509.71 36.6809 508.8 36.1509 508.3 35.7809C507.56 35.2509 501.15 35.7609 498.84 35.0709C497.75 34.7309 496.38 34.9009 495.14 34.8709C494.08 34.8509 493.05 34.7909 492.01 34.7009C490.98 34.6109 489.91 34.5209 489 34.3209C488.52 34.2209 488.08 34.1409 487.57 34.0009C487.05 33.8409 486.52 33.6709 486 33.5109C484.94 33.1709 483.88 32.8009 482.78 32.3909C479.95 31.3209 476.11 31.0509 473.25 31.8609C470.13 32.7209 467.94 33.2209 464.72 32.5609C464.02 32.4009 462.32 32.8809 462.21 33.1709C461.58 34.8309 460.63 35.2709 458.93 34.7209C458.42 34.5809 457.48 34.8509 456.88 35.1409C456.22 35.4909 455.58 35.8309 454.93 36.1809C454.28 36.5509 453.62 36.8709 452.91 37.1209C451.06 37.8109 449.08 38.4209 447.1 38.5009C444.73 38.5909 442.37 37.6609 440.17 37.7209C438.3 37.7409 436.39 36.5709 434.52 37.5409C433.14 38.2409 431.66 37.6409 430.36 36.8109C428.96 35.9509 427.62 35.6609 425.93 35.2709C423.55 34.7609 420.51 35.1909 418.41 32.3509C418.3 32.2009 417.92 32.0309 417.72 32.0209C415.08 31.8809 412.54 30.3909 409.6 29.9309C408.55 29.7809 407.47 29.6509 406.37 29.6409L404.76 29.6609L403.32 29.7209C401.21 29.8309 398.95 28.8009 397.05 29.9409C395.61 30.8309 394.06 30.8909 392.31 30.2209C391.8 30.0209 390.76 30.0009 390.63 30.2609C389.7 32.0909 387.46 30.5809 386.27 31.6209C384.54 33.1809 384.14 32.3009 382.52 31.2709C382.06 30.9809 380.35 31.1109 379.12 31.0809C378.14 31.1509 377.21 31.3609 376.5 32.3509C376.36 32.5509 375.16 32.0709 374.67 31.6109C373.13 30.1709 369.04 29.0409 368.25 30.3409C367.01 32.3609 365.46 31.3909 364.57 30.4709C363.63 29.5009 362.79 29.2809 362.45 30.1609C361.75 31.9109 360.52 31.2309 359.54 31.0409C358.21 30.7909 357.48 31.2009 356.75 32.3709C355.73 33.9909 354.91 34.0009 354.11 32.2109C353.01 29.7609 351.17 31.4109 349.76 30.9109C348.64 30.5309 349.05 32.0109 348.96 32.8809C348.84 34.1409 347.08 35.0409 346.83 34.3909C345.92 31.9809 344.77 33.4209 343.69 33.9409C342.6 34.5209 341.54 35.0909 340.47 35.6609C339.84 35.9609 339.29 36.3509 338.66 35.4209C338.42 35.0109 337.42 35.1009 336.97 34.7909C336.42 34.4909 335.84 34.3309 335.47 33.8609C333.16 31.0509 331.42 30.7309 328.52 31.9609C328.09 32.1709 327.56 32.2609 327.1 32.4309C325.98 32.8509 325.2 32.9909 324.45 32.8909C324.07 32.8509 323.71 32.7009 323.31 32.5809C323.11 32.5409 322.89 32.5509 322.68 32.4409C322.47 32.3209 322.24 32.1909 322 32.0509C320.69 31.2609 319.15 30.8209 317.61 30.3209C317.25 30.2109 316.47 30.5109 316.14 30.7709C314.52 32.0509 314.33 32.1709 312.79 31.0609C311.64 30.2309 310.87 30.3209 309.78 30.7009C309 30.9809 308.3 31.3709 307.47 31.5609C306.68 31.7409 305.35 32.0909 304.99 31.8509C303.48 30.8909 302.14 31.4609 300.66 31.7009C298.57 32.0709 296.45 32.4709 294.32 32.7009C292.17 32.9309 290.03 33.1209 288.04 33.8609C286.91 34.2909 285.91 34.1409 284.56 33.7409C282.77 33.2109 280.26 31.6109 278.23 33.9809C278.18 34.0409 277.46 34.0009 277.34 33.8609C276.06 32.4709 274.61 33.2109 273.48 33.9309C270.87 35.6109 267.8 36.2409 264.61 35.8309C262.69 35.5409 261.32 35.1909 260.13 36.6809C259.84 37.0409 258.68 37.3609 258.13 37.2409C256.37 36.8009 254.79 36.7909 253.26 37.0509C252.5 37.1809 251.75 37.3809 251.01 37.6209C250.27 37.8309 249.53 38.0809 248.79 38.3509C248.15 38.5809 246.48 38.4309 246.4 38.2309C245.76 36.5809 244.26 37.6409 243.81 37.8409C240.64 39.3609 237.04 38.4909 233.71 37.8709C232.92 37.7509 232.08 36.6709 231.48 36.7509C229.29 36.9709 227.33 35.4509 225.07 35.8209C223.97 36.0009 221.89 35.6309 220.79 34.9509C219.16 33.9709 218.02 33.9609 216.38 34.1709C212.96 34.6209 209.61 35.3709 206.32 32.9209C205.92 32.6309 204.62 32.6409 204.23 32.9409C201.82 34.7709 199.45 33.3309 197.05 32.5009C196.66 32.3609 196.23 32.0709 195.87 32.1009C194.4 32.2209 192.71 32.1109 191.54 32.6909C189.45 33.7309 187.41 33.3209 185.82 32.1609C183.21 30.2509 181.05 32.3009 178.69 31.8009C176.62 34.1309 174.29 33.9609 171.58 32.0809C171 31.6809 169.67 31.6209 169.08 31.9509C167.42 32.8709 165.81 32.6009 164.06 32.0809C163.6 31.9409 162.99 31.9409 162.58 32.1209C161.91 32.4009 161.5 32.7309 160.69 32.0109C159.05 30.5509 157.29 30.7109 155.19 31.1609C152.48 31.7409 149.6 32.7509 146.61 30.9409C145.93 30.5309 144.29 30.5609 143.87 31.0409C142.27 32.8209 141.34 32.1909 140.02 30.5209C138.97 29.1909 137.31 29.2809 135.87 30.2009C134.63 30.9809 133.3 31.6809 131.89 32.1109C131.45 32.2509 130.5 31.4809 129.98 30.9509C129.21 30.1709 122.81 31.7409 120.45 30.9909C119.33 30.6309 117.96 31.0809 116.72 31.2209C112.46 31.6909 108.32 31.7709 103.91 30.7609C102.44 30.4509 100.92 30.3409 99.21 30.5109C97.55 30.6409 95.78 31.1209 94.44 31.7909C91.56 33.2709 89.39 33.9709 86.62 32.8609C86.03 32.6309 84.64 32.7709 84.51 33.0409C83.76 34.6409 82.76 34.7109 81.5 33.5309C81.13 33.1709 80.29 33.0909 79.73 33.1109C78.48 33.1509 77.27 33.3309 75.91 32.9109C74.13 32.3809 72.13 31.4709 70.01 30.4209C68.76 29.8109 67.34 29.0709 65.75 28.7009C64.19 28.3109 62.58 28.2509 61.17 28.5809C58.86 29.1009 56.19 29.0509 54.91 30.8809C53.98 32.2309 52.42 32.4509 50.86 32.4609C49.19 32.4609 47.89 32.9409 46.26 33.5709C44 34.4309 41.69 36.6109 38.63 35.1109C38.48 35.0409 38.09 35.0609 37.92 35.1409C35.69 36.2509 33.01 35.8909 30.5 35.9709C28.67 36.0309 26.82 36.0109 24.97 35.9309C22.93 35.8809 20.86 34.8309 18.84 35.6009C17.3 36.1609 15.77 36.0309 14.15 35.3209C13.68 35.1109 12.67 34.9809 12.49 35.1609C11.29 36.3909 9.32 35.0109 7.98 35.5809C6.37 36.2909 5.91 35.9409 5 35.2709V38.9109C5.33 38.8509 5.66 38.7909 6.05 38.6909C6.28 39.2009 6.77 39.2109 7.1 39.6709C7.19 39.8009 7.78 39.8009 8.11 39.7709C8.7 39.7209 9.31 39.4509 9.86 39.5309C15.31 40.3009 16.39 40.2409 21.03 39.0009C21.68 38.8209 22.5 38.7709 23.2 38.8709C24.97 39.1409 27.13 38.3009 28.46 39.9609C28.57 40.0909 29.42 40.0109 29.91 39.9609C33.75 39.5209 37.57 39.3209 41.5 39.2809C42.59 39.2509 43.88 39.3409 44.74 39.6909C46.36 40.3409 47.37 40.0009 48.3 38.8309C49.21 37.7509 50.18 36.8209 52.03 37.6209C52.26 37.7209 52.79 37.6209 53.11 37.4809C55.41 36.5009 57.63 35.4309 59.5 34.3009C61.67 32.9609 64.17 32.2009 66.46 32.8209C68.77 33.4409 70.5 35.1909 72.3 37.3509C72.56 37.6609 72.94 38.1209 73.28 38.2009C75.47 38.7709 77.86 39.1909 80.09 39.3109C82.34 39.4309 84.54 39.3709 86.7 39.2609C88.22 39.1809 90.52 39.7609 90.43 37.3809C90.43 37.2309 90.96 36.9609 91.27 36.9309C93.46 36.7109 95.62 36.5409 97.7 36.6109C99.8 36.7309 101.99 36.9509 104.18 37.1609C107.8 37.5209 111.44 37.7009 115.02 36.1009C116.23 35.5609 117.45 35.6809 118.6 36.6609C119.02 37.0209 119.74 37.3509 120.24 37.2809C122.97 36.9409 125.65 36.2409 128.4 36.1109C130.53 36.0109 132.74 36.5509 134.92 36.8109C135.24 36.8509 135.82 37.0309 135.85 36.9609C136.61 35.1509 137.83 36.4509 138.94 36.6209C140.13 36.8109 141.36 36.7409 142.56 36.7009C143.17 36.6809 143.79 36.2709 144.37 36.3709C147.14 36.8609 149.68 37.9209 152.67 36.6209C154.36 35.9009 157.06 37.0609 159.31 37.3709L164.12 37.1609C164.97 36.1709 165.88 36.3609 166.94 37.0809C167.41 37.4009 168.23 37.7609 168.62 37.6109C170.96 36.6609 172.82 38.0309 174.9 38.6809C176.76 39.2809 178.79 40.1809 180.74 38.8609C182.06 37.9709 183.38 38.4209 184.52 39.4409C185.54 40.3509 186.65 40.4309 187.55 39.5809C189.01 38.2009 191.26 38.3209 192.9 37.5309C194.99 36.5409 196.7 37.6009 198.57 37.7409C199.55 37.8209 200.55 38.1609 201.49 38.1109C203.58 38.0009 205.51 38.3309 207.36 39.3009C207.9 39.5909 209 39.8109 209.3 39.5809C210.73 38.5209 212.24 39.0709 213.82 39.4509C214.9 39.7409 216.03 39.9509 217.14 40.0109L219 40.0909C219.61 40.1209 220.19 40.1909 220.78 40.2409C221.96 40.3409 223.15 40.4309 224.46 40.6109C224.93 40.6709 225.56 40.8709 225.83 41.1509C226.58 41.9309 227.4 42.2809 228.26 42.4209C229.12 42.5509 230.02 42.4909 230.99 42.2809C232.34 42.0409 233.86 41.8609 235.37 42.8209C235.89 43.1409 237.24 43.2209 237.78 42.8909C239.29 42.0509 240.36 42.1909 241.9 43.1109C242.55 43.5009 243.31 43.9009 244.1 44.2109C244.89 44.4909 245.7 44.6509 246.46 44.6409C248.91 44.5909 251.39 44.1409 253.69 43.4809C258.27 42.3509 263.12 41.7809 267.34 39.9709C267.8 39.7709 268.75 39.7809 269.2 39.9909C271.02 40.8209 272.87 40.2009 274.43 39.7109C277.05 38.9109 279.59 40.2709 282.26 39.2109C283.32 38.7909 285.23 39.6509 286.66 39.4609C287.99 39.3109 289.16 38.4009 290.51 38.1209C292.77 37.6309 295.15 38.7109 297.44 37.7909C297.62 37.7209 298.13 37.9609 298.41 38.1209C299.44 38.7109 299.87 38.6409 300.56 37.6809C301.52 36.3809 304.17 35.5709 305.28 36.0409C305.93 36.3209 306.59 36.5009 307.26 36.6309C307.92 36.7909 308.6 36.8809 309.27 36.9309C310.61 37.0309 311.97 36.9609 313.3 36.8909C314.77 36.8109 316.05 36.9909 317.15 37.6009C318.31 38.2709 319.03 38.5509 320.23 37.7409C320.63 37.4609 321.12 37.2309 321.66 37.2409C321.93 37.2609 322.23 37.2609 322.49 37.6509C322.76 38.0309 323.07 38.2109 323.35 38.6709C323.81 39.3409 324.6 39.7809 325.5 39.9609C325.95 40.0509 326.42 40.0809 326.89 40.0409C327.35 40.0209 327.81 39.9809 328.24 39.8409C329.68 39.3909 331.26 39.6409 332.85 39.9309C333.27 40.0109 333.58 40.0709 334.1 40.1509C334.61 40.2209 335.12 40.2809 335.63 40.3109C336.12 40.3309 336.65 40.3809 337.07 40.2909C337.5 40.2109 337.91 40.1009 338.31 39.9409C338.53 39.8509 339.08 40.1609 339.41 40.3809C341.85 41.9709 344.38 41.3709 346.8 41.2509C347.32 41.2309 348.06 41.3509 348.38 41.6809C350.42 43.9109 352.31 44.5909 354.79 43.8109C355.62 43.5509 356.48 43.1209 357.33 43.2009C360.68 43.5609 363.56 42.6809 366.06 40.5709C366.34 40.3409 367.17 40.2909 367.29 40.4709C368.68 42.6609 369.27 41.0609 370.22 40.1709C370.95 39.4809 371.85 38.2309 373.16 39.8109C373.32 40.0009 374.11 39.8309 374.43 39.5709C376.15 38.1409 378.16 38.4009 379.91 39.1009C382.2 39.8409 382.5 37.5409 382.92 37.3809C383.74 37.0309 384.3 36.7909 385.06 36.3209C385.4 36.9709 385.87 36.8709 386.3 37.4409C386.42 37.5909 386.99 37.4609 387.31 37.3409C387.88 37.1309 388.41 36.6309 388.97 36.6109C394.46 36.4409 395.46 35.9609 399.81 33.7109C400.42 33.4009 401.23 33.2109 401.93 33.2309C403.67 33.2809 405.88 32.1009 407.08 33.9209C407.17 34.0609 407.95 33.9909 408.4 33.9909C412.01 33.9109 415.6 35.4209 418.88 37.3509C419.8 37.8909 420.83 38.6409 421.35 39.3909C422.33 40.8109 423.39 41.0509 424.8 40.6309C426.15 40.2609 427.47 40.0209 428.6 41.6609C428.74 41.8609 429.25 42.0709 429.59 42.1309C432.04 42.5209 434.6 42.9209 436.96 42.6509C442.49 42.0409 447.31 41.7809 452.89 42.8309C453.29 42.9109 453.85 43.0009 454.15 42.8509C456.06 41.9409 457.96 41.0709 459.91 40.2909C460.87 39.9009 461.87 39.4509 462.81 39.1009C463.67 38.7609 464.57 38.4909 465.47 38.2709C466.79 37.9809 468.75 38.3809 468.77 36.3309C468.77 36.2009 469.3 35.9609 469.59 35.9309C473.85 35.6409 478.12 36.2109 482.28 37.1709C484.04 37.5509 485.65 38.0309 487.55 38.2509C489.54 38.5009 491.34 38.3509 493.2 37.9909C494.44 37.7409 495.66 37.9109 496.76 38.6409C497.17 38.9109 497.87 39.1709 498.37 39.1709C501.12 39.1109 503.83 38.8309 506.58 38.9009C508.72 38.9509 510.91 39.4009 513.08 39.6609C513.4 39.7009 513.98 39.8309 514.01 39.7909C514.81 38.7409 516 39.5709 517.11 39.7109C518.3 39.8709 519.53 39.8809 520.73 39.9109C521.34 39.9209 521.97 39.7109 522.54 39.7909C525.3 40.1809 527.84 40.8209 530.84 40.2109C532.53 39.8809 535.23 40.5709 537.48 40.7809H542.3C543.14 40.3209 544.05 40.4509 545.12 40.8009C545.59 40.9609 546.42 41.1509 546.81 41.0809C549.15 40.6809 551.02 41.3309 553.12 41.6409C554.99 41.9309 557.04 42.3209 558.98 41.7709C560.28 41.4109 561.61 41.6109 562.78 42.0409C563.82 42.4309 564.94 42.4509 565.82 42.1109C567.25 41.5509 569.5 41.6009 571.12 41.2909C573.17 40.8709 574.93 41.2909 576.81 41.3209C577.79 41.3509 578.81 41.4409 579.76 41.4009C581.86 41.3009 583.79 41.3809 585.76 41.6409C586.33 41.7209 587.46 41.7609 587.78 41.5909C588.47 41.2509 589.22 41.1009 589.99 40.9809C590.75 40.8009 591.55 40.6609 592.36 40.4709C593.47 40.2009 594.62 39.8409 595.67 39.4109C598.03 38.4609 600.27 37.3809 602.58 36.5209C603.01 36.3709 603.62 36.2209 603.94 36.2609C605.75 36.4709 607.09 35.9809 608.74 35.5509C609.82 35.3109 611.48 35.0509 613.05 35.5009C613.61 35.6709 614.91 35.5409 615.41 35.2809C616.78 34.5509 617.87 34.5009 619.46 35.1309C620.81 35.6509 622.55 36.2909 624.03 36.3109C626.41 36.3309 628.76 35.9109 631.01 35.4309C635.46 34.4709 640.19 34.4309 644.49 32.8909C644.97 32.7209 645.89 32.9109 646.29 33.2909C647.9 34.8109 649.69 34.4409 651.24 34.2809C651.9 34.1809 652.49 34.3209 653.04 34.5609C653.59 34.8009 654.14 35.0809 654.61 35.4209C655.07 35.7709 655.5 36.0909 655.98 36.3109C656.49 36.5409 657.28 36.7709 658.03 36.7409C659.25 36.7509 660.65 38.7209 662.19 39.0909C663.61 39.3809 665.17 38.5909 666.62 38.6509C669.02 38.7909 671.18 40.6109 673.8 39.8109C674 39.7509 674.47 40.1109 674.73 40.3309C675.68 41.1409 676.16 41.0709 677.05 40.0809C678.3 38.6809 681.08 38.1409 682.17 38.6409C684.74 39.8309 687.68 39.4309 690.43 39.2509C691.96 39.1209 693.29 39.0909 694.48 39.4309C695.74 39.7809 696.55 39.8809 697.71 39.2509C698.48 38.8209 699.62 38.3809 701.1 39.1909C702.27 39.8209 704.78 39.6409 706.42 39.0209C709.19 37.9909 713.08 38.3309 715.96 37.4509C716.16 37.3909 716.71 37.4909 717.03 37.5709C719.42 38.1309 721.8 37.6909 724.19 37.5709C724.69 37.5409 725.42 37.5709 725.72 37.7209C727.66 38.6809 729.47 38.9909 731.89 38.6509C732.7 38.5409 733.57 38.3709 734.39 38.4309C737.62 38.7109 740.44 38.5609 743.07 37.7609C743.37 37.6609 744.17 37.7509 744.26 37.8609C745.35 39.2009 746.07 38.4709 747.09 38.1509C747.87 37.9009 748.93 37.3509 749.89 38.5409C750.01 38.6809 750.76 38.7709 751.09 38.7209C752.1 38.4909 753.1 38.6509 753.98 39.0309V34.7509L753.95 34.6709Z" fill="white"/>
</g>
<path d="M107 34.2101V1.83008" stroke="white" stroke-width="3" stroke-linecap="round" stroke-linejoin="round"/>
<path d="M168 35L168 2" stroke="white" stroke-width="3" stroke-linecap="round" stroke-linejoin="round"/>
<path d="M229 39.22V1.83008" stroke="white" stroke-width="3" stroke-linecap="round" stroke-linejoin="round"/>
<path d="M290 36.22V1.83008" stroke="white" stroke-width="3" stroke-linecap="round" stroke-linejoin="round"/>
<path d="M351 36.22V1.83008" stroke="white" stroke-width="3" stroke-linecap="round" stroke-linejoin="round"/>
<path d="M412 32V2" stroke="white" stroke-width="3" stroke-linecap="round" stroke-linejoin="round"/>
<path d="M473 34L473 2" stroke="white" stroke-width="3" stroke-linecap="round" stroke-linejoin="round"/>
<path d="M534 38L534 2" stroke="white" stroke-width="3" stroke-linecap="round" stroke-linejoin="round"/>
<path d="M595 38L595 2" stroke="white" stroke-width="3" stroke-linecap="round" stroke-linejoin="round"/>
<path d="M656 33L656 2" stroke="white" stroke-width="3" stroke-linecap="round" stroke-linejoin="round"/>
<defs>
<filter id="filter0_d_2250_36" x="0" y="23.5684" width="758.98" height="29.0723" filterUnits="userSpaceOnUse" color-interpolation-filters="sRGB">
<feFlood flood-opacity="0" result="BackgroundImageFix"/>
<feColorMatrix in="SourceAlpha" type="matrix" values="0 0 0 0 0 0 0 0 0 0 0 0 0 0 0 0 0 0 127 0" result="hardAlpha"/>
<feOffset dy="3"/>
<feGaussianBlur stdDeviation="2.5"/>
<feComposite in2="hardAlpha" operator="out"/>
<feColorMatrix type="matrix" values="0 0 0 0 0 0 0 0 0 0 0 0 0 0 0 0 0 0 0.25 0"/>
<feBlend mode="normal" in2="BackgroundImageFix" result="effect1_dropShadow_2250_36"/>
<feBlend mode="normal" in="SourceGraphic" in2="effect1_dropShadow_2250_36" result="shape"/>
</filter>
</defs>
</svg>
