<svg width="759" height="53" viewBox="0 0 759 53" fill="none" xmlns="http://www.w3.org/2000/svg">
<g filter="url(#filter0_d_2250_37)">
<path d="M5.03 34.2393C5.41 34.0493 5.85999 33.7793 6.07999 33.5893C7.36999 32.3293 11.59 31.3793 12.58 32.0493C14.12 33.0793 15.58 32.4293 16.41 31.9493C17.28 31.4293 18.14 31.2993 18.58 31.7393C19.45 32.6193 20.65 32.2293 21.64 32.1593C22.99 32.0493 23.77 32.2393 24.59 32.8093C25.72 33.5893 26.54 33.5693 27.28 32.7593C28.3 31.6493 30.27 32.4393 31.7 32.2493C32.85 32.0993 32.46 32.7793 32.57 33.1693C32.72 33.7493 34.53 34.2193 34.78 33.9293C35.7 32.8493 36.89 33.5293 38.01 33.8293C39.12 34.1293 40.19 34.4693 41.27 34.7793C41.92 34.9693 42.43 35.1993 43.18 34.7993C43.5 34.6293 44.46 34.7093 45.12 34.6493C45.82 34.5893 46.66 34.5693 47.17 34.3893C50.08 33.3593 51.59 33.3493 54.04 34.3893C54.4 34.5393 54.89 34.6293 55.29 34.7693C57.26 35.4293 58.22 35.4193 60.21 34.8593C61.56 34.4893 63.07 34.1693 64.57 33.8593C64.91 33.7893 65.64 33.9893 65.94 34.1793C67.44 35.0893 67.66 35.2693 69.16 34.2893C70.26 33.5493 70.99 33.5193 72.05 33.7393C72.81 33.8793 73.5 34.1493 74.31 34.2293C75.08 34.3193 76.4 34.3993 76.72 34.1093C78.07 32.9093 79.39 33.1693 80.83 33.1193C82.87 33.0293 84.94 32.8593 86.98 32.4993C89.04 32.1593 91.02 31.5293 93.09 31.7393C94.27 31.8693 95.13 31.2993 96.09 30.1393C96.74 29.3893 97.38 28.2293 98.16 27.4693C98.56 27.0993 99 26.8493 99.54 26.8393C99.76 26.8393 100.22 26.8493 100.62 26.9593C101.03 27.0593 101.46 27.2393 101.9 27.5093C101.99 27.5693 102.78 27.1493 102.86 26.9193C103.63 24.5693 105.74 24.9693 107.1 25.7193C110.4 27.2493 113.51 27.5993 116.8 26.6893C118.75 26.1893 120.2 25.7293 121.49 27.5093C121.81 27.9393 123 28.2793 123.56 28.1193C127.14 27.1693 130.12 28.4793 133.06 29.8693C133.7 30.1593 135.4 30.1993 135.49 30.0393C136.26 28.6293 137.72 29.8093 138.15 30.0693C139.68 31.0293 141.37 31.4093 143.1 31.6393C144.82 31.8593 146.62 31.9393 148.28 32.0693C148.97 32.1193 150.15 31.5793 150.81 31.7693C153.16 32.4093 155.65 32.6193 157.66 33.8693C158.71 34.4993 160.45 35.2393 161.58 35.4793C163.18 35.8193 164.21 36.3193 165.55 37.0393C166.95 37.7793 168.42 38.5193 169.95 38.8193C170.73 38.9093 171.46 39.0393 172.3 38.9893C173.13 38.9393 173.97 38.8293 174.81 38.6493C175.22 38.5693 176.48 38.6493 176.85 38.7793C179.12 39.6293 181.55 39.1293 183.96 38.8093C184.36 38.7593 184.79 38.6493 185.14 38.6593C186.59 38.7293 188.28 38.6993 189.41 38.9193C191.46 39.3393 193.51 39.1493 195.11 38.6593C197.75 37.8093 199.85 38.6193 202.22 38.3493C204.24 39.2793 206.57 39.1693 209.29 38.2393C209.87 38.0393 211.19 37.9693 211.78 38.0893C213.42 38.4393 215.04 38.2593 216.78 37.9293C217.24 37.8393 217.84 37.8193 218.25 37.8793C218.92 37.9793 219.32 38.1393 220.13 37.7393C221.76 36.9393 223.52 36.9093 225.61 37.0293C228.31 37.1793 231.2 37.5993 234.15 36.4193C234.82 36.1493 236.45 36.0693 236.88 36.3093C238.5 37.2293 239.42 36.8293 240.7 35.7693C241.72 34.9193 243.36 34.8493 244.82 35.2993C246.07 35.6893 247.41 36.0193 248.82 36.1993C249.27 36.2493 250.18 35.7193 250.68 35.3493C251.42 34.8193 257.83 35.3293 260.14 34.6393C261.23 34.2993 262.6 34.4693 263.84 34.4393C264.9 34.4193 265.93 34.3593 266.97 34.2693C268 34.1793 269.07 34.0893 269.98 33.8893C270.46 33.7893 270.9 33.7093 271.41 33.5693C271.93 33.4093 272.46 33.2393 272.98 33.0793C274.04 32.7393 275.1 32.3693 276.2 31.9593C279.03 30.8893 282.87 30.6193 285.73 31.4293C288.85 32.2893 291.04 32.7893 294.26 32.1293C294.96 31.9693 296.66 32.4493 296.77 32.7393C297.4 34.3993 298.35 34.8393 300.05 34.2893C300.56 34.1493 301.5 34.4193 302.1 34.7093C302.76 35.0593 303.4 35.3993 304.05 35.7493C304.7 36.1193 305.36 36.4393 306.07 36.6893C307.92 37.3793 309.9 37.9893 311.88 38.0693C314.25 38.1593 316.61 37.2293 318.81 37.2893C320.68 37.3093 322.59 36.1393 324.46 37.1093C325.84 37.8093 327.32 37.2093 328.62 36.3793C330.02 35.5193 331.36 35.2293 333.05 34.8393C335.43 34.3293 338.47 34.7593 340.57 31.9193C340.68 31.7693 341.06 31.5993 341.26 31.5893C343.9 31.4493 346.44 29.9593 349.38 29.4993C350.43 29.3493 351.51 29.2193 352.61 29.2093L354.22 29.2293L355.66 29.2893C357.77 29.3993 360.03 28.3693 361.93 29.5093C363.37 30.3993 364.92 30.4593 366.67 29.7893C367.18 29.5893 368.22 29.5693 368.35 29.8293C369.28 31.6593 371.52 30.1493 372.71 31.1893C374.44 32.7493 374.84 31.8693 376.46 30.8393C376.92 30.5493 378.63 30.6793 379.86 30.6493C380.84 30.7193 381.77 30.9293 382.48 31.9193C382.62 32.1193 383.82 31.6393 384.31 31.1793C385.85 29.7393 389.94 28.6093 390.73 29.9093C391.97 31.9293 393.52 30.9593 394.41 30.0393C395.35 29.0693 396.19 28.8493 396.53 29.7293C397.23 31.4793 398.46 30.7993 399.44 30.6093C400.77 30.3593 401.5 30.7693 402.23 31.9393C403.25 33.5593 404.07 33.5693 404.87 31.7793C405.97 29.3293 407.81 30.9793 409.22 30.4793C410.34 30.0993 409.93 31.5793 410.02 32.4493C410.14 33.7093 411.9 34.6093 412.15 33.9593C413.06 31.5493 414.21 32.9893 415.29 33.5093C416.38 34.0893 417.44 34.6593 418.51 35.2293C419.14 35.5293 419.69 35.9193 420.32 34.9893C420.56 34.5793 421.56 34.6693 422.01 34.3593C422.56 34.0593 423.14 33.8993 423.51 33.4293C425.82 30.6193 427.56 30.2993 430.46 31.5293C430.89 31.7393 431.42 31.8293 431.88 31.9993C433 32.4193 433.78 32.5593 434.53 32.4593C434.91 32.4193 435.27 32.2693 435.67 32.1493C435.87 32.1093 436.09 32.1193 436.3 32.0093C436.51 31.8893 436.74 31.7593 436.98 31.6193C438.29 30.8293 439.83 30.3893 441.37 29.8893C441.73 29.7793 442.51 30.0793 442.84 30.3393C444.46 31.6193 444.65 31.7393 446.19 30.6293C447.34 29.7993 448.11 29.8893 449.2 30.2693C449.98 30.5493 450.68 30.9393 451.51 31.1293C452.3 31.3093 453.63 31.6593 453.99 31.4193C455.5 30.4593 456.84 31.0293 458.32 31.2693C460.41 31.6393 462.53 32.0393 464.66 32.2693C466.81 32.4993 468.95 32.6893 470.94 33.4293C472.07 33.8593 473.07 33.7093 474.42 33.3093C476.21 32.7793 478.72 31.1793 480.75 33.5493C480.8 33.6093 481.52 33.5693 481.64 33.4293C482.92 32.0393 484.37 32.7793 485.5 33.4993C488.11 35.1793 491.18 35.8093 494.37 35.3993C496.29 35.1093 497.66 34.7593 498.85 36.2493C499.14 36.6093 500.3 36.9293 500.85 36.8093C502.61 36.3693 504.19 36.3593 505.72 36.6193C506.48 36.7493 507.23 36.9493 507.97 37.1893C508.71 37.3993 509.45 37.6493 510.19 37.9193C510.83 38.1493 512.5 37.9993 512.58 37.7993C513.22 36.1493 514.72 37.2093 515.17 37.4093C518.34 38.9293 521.94 38.0593 525.27 37.4393C526.06 37.3193 526.9 36.2393 527.5 36.3193C529.69 36.5393 531.65 35.0193 533.91 35.3893C535.01 35.5693 537.09 35.1993 538.19 34.5193C539.82 33.5393 540.96 33.5293 542.6 33.7393C546.02 34.1893 549.37 34.9393 552.66 32.4893C553.06 32.1993 554.36 32.2093 554.75 32.5093C557.16 34.3393 559.53 32.8993 561.93 32.0693C562.32 31.9293 562.75 31.6393 563.11 31.6693C564.58 31.7893 566.27 31.6793 567.44 32.2593C569.53 33.2993 571.57 32.8893 573.16 31.7293C575.77 29.8193 577.93 31.8693 580.29 31.3693C582.36 33.6993 584.69 33.5293 587.4 31.6493C587.98 31.2493 589.31 31.1893 589.9 31.5193C591.56 32.4393 593.17 32.1693 594.92 31.6493C595.38 31.5093 595.99 31.5093 596.4 31.6893C597.07 31.9693 597.48 32.2993 598.29 31.5793C599.93 30.1193 601.69 30.2793 603.79 30.7293C606.5 31.3093 609.38 32.3193 612.37 30.5093C613.05 30.0993 614.69 30.1293 615.11 30.6093C616.71 32.3893 617.64 31.7593 618.96 30.0893C620.01 28.7593 621.67 28.8493 623.11 29.7693C624.35 30.5493 625.68 31.2493 627.09 31.6793C627.53 31.8193 628.48 31.0493 629 30.5193C629.77 29.7393 636.17 31.3093 638.53 30.5593C639.65 30.1993 641.02 30.6493 642.26 30.7893C646.52 31.2593 650.66 31.3393 655.07 30.3293C656.54 30.0193 658.06 29.9093 659.77 30.0793C661.43 30.2093 663.2 30.6893 664.54 31.3593C667.42 32.8393 669.59 33.5393 672.36 32.4293C672.95 32.1993 674.34 32.3393 674.47 32.6093C675.22 34.2093 676.22 34.2793 677.48 33.0993C677.85 32.7393 678.69 32.6593 679.25 32.6793C680.5 32.7193 681.71 32.8993 683.07 32.4793C684.85 31.9493 686.85 31.0393 688.97 29.9893C690.22 29.3793 691.64 28.6393 693.23 28.2693C694.79 27.8793 696.4 27.8193 697.81 28.1493C700.12 28.6693 702.79 28.6193 704.07 30.4493C705 31.7993 706.56 32.0193 708.12 32.0293C709.79 32.0293 711.09 32.5093 712.72 33.1393C714.98 33.9993 717.29 36.1793 720.35 34.6793C720.5 34.6093 720.89 34.6293 721.06 34.7093C723.29 35.8193 725.97 35.4593 728.48 35.5393C730.31 35.5993 732.16 35.5793 734.01 35.4993C736.05 35.4493 738.12 34.3993 740.14 35.1693C741.68 35.7293 743.21 35.5993 744.83 34.8893C745.3 34.6793 746.31 34.5493 746.49 34.7293C747.69 35.9593 749.66 34.5793 751 35.1493C752.61 35.8593 753.07 35.5093 753.98 34.8393V38.4793C753.65 38.4193 753.32 38.3593 752.93 38.2593C752.7 38.7693 752.21 38.7793 751.88 39.2393C751.79 39.3693 751.2 39.3693 750.87 39.3393C750.28 39.2893 749.67 39.0193 749.12 39.0993C743.67 39.8693 742.59 39.8093 737.95 38.5693C737.3 38.3893 736.48 38.3393 735.78 38.4393C734.01 38.7093 731.85 37.8693 730.52 39.5293C730.41 39.6593 729.56 39.5793 729.07 39.5293C725.23 39.0893 721.41 38.8893 717.48 38.8493C716.39 38.8193 715.1 38.9093 714.24 39.2593C712.62 39.9093 711.61 39.5693 710.68 38.3993C709.77 37.3193 708.8 36.3893 706.95 37.1893C706.72 37.2893 706.19 37.1893 705.87 37.0493C703.57 36.0693 701.35 34.9993 699.48 33.8693C697.31 32.5293 694.81 31.7693 692.52 32.3893C690.21 33.0093 688.48 34.7593 686.68 36.9193C686.42 37.2293 686.04 37.6893 685.7 37.7693C683.51 38.3393 681.12 38.7593 678.89 38.8793C676.64 38.9993 674.44 38.9393 672.28 38.8293C670.76 38.7493 668.46 39.3293 668.55 36.9493C668.55 36.7993 668.02 36.5293 667.71 36.4993C665.52 36.2793 663.36 36.1093 661.28 36.1793C659.18 36.2993 656.99 36.5193 654.8 36.7293C651.18 37.0893 647.54 37.2693 643.96 35.6693C642.75 35.1293 641.53 35.2493 640.38 36.2293C639.96 36.5893 639.24 36.9193 638.74 36.8493C636.01 36.5093 633.33 35.8093 630.58 35.6793C628.45 35.5793 626.24 36.1193 624.06 36.3793C623.74 36.4193 623.16 36.5993 623.13 36.5293C622.37 34.7193 621.15 36.0193 620.04 36.1893C618.85 36.3793 617.62 36.3093 616.42 36.2693C615.81 36.2493 615.19 35.8393 614.61 35.9393C611.84 36.4293 609.3 37.4893 606.31 36.1893C604.62 35.4693 601.92 36.6293 599.67 36.9393L594.86 36.7293C594.01 35.7393 593.1 35.9293 592.04 36.6493C591.57 36.9693 590.75 37.3293 590.36 37.1793C588.02 36.2293 586.16 37.5993 584.08 38.2493C582.22 38.8493 580.19 39.7493 578.24 38.4293C576.92 37.5393 575.6 37.9893 574.46 39.0093C573.44 39.9193 572.33 39.9993 571.43 39.1493C569.97 37.7693 567.72 37.8893 566.08 37.0993C563.99 36.1093 562.28 37.1693 560.41 37.3093C559.43 37.3893 558.43 37.7293 557.49 37.6793C555.4 37.5693 553.47 37.8993 551.62 38.8693C551.08 39.1593 549.98 39.3793 549.68 39.1493C548.25 38.0893 546.74 38.6393 545.16 39.0193C544.08 39.3093 542.95 39.5193 541.84 39.5793L539.98 39.6593C539.37 39.6893 538.79 39.7593 538.2 39.8093C537.02 39.9093 535.83 39.9993 534.52 40.1793C534.05 40.2393 533.42 40.4393 533.15 40.7193C532.4 41.4993 531.58 41.8493 530.72 41.9893C529.86 42.1193 528.96 42.0593 527.99 41.8493C526.64 41.6093 525.12 41.4293 523.61 42.3893C523.09 42.7093 521.74 42.7893 521.2 42.4593C519.69 41.6193 518.62 41.7593 517.08 42.6793C516.43 43.0693 515.67 43.4693 514.88 43.7793C514.09 44.0593 513.28 44.2193 512.52 44.2093C510.07 44.1593 507.59 43.7093 505.29 43.0493C500.71 41.9193 495.86 41.3493 491.64 39.5393C491.18 39.3393 490.23 39.3493 489.78 39.5593C487.96 40.3893 486.11 39.7693 484.55 39.2793C481.93 38.4793 479.39 39.8393 476.72 38.7793C475.66 38.3593 473.75 39.2193 472.32 39.0293C470.99 38.8793 469.82 37.9693 468.47 37.6893C466.21 37.1993 463.83 38.2793 461.54 37.3593C461.36 37.2893 460.85 37.5293 460.57 37.6893C459.54 38.2793 459.11 38.2093 458.42 37.2493C457.46 35.9493 454.81 35.1393 453.7 35.6093C453.05 35.8893 452.39 36.0693 451.72 36.1993C451.06 36.3593 450.38 36.4493 449.71 36.4993C448.37 36.5993 447.01 36.5293 445.68 36.4593C444.21 36.3793 442.93 36.5593 441.83 37.1693C440.67 37.8393 439.95 38.1193 438.75 37.3093C438.35 37.0293 437.86 36.7993 437.32 36.8093C437.05 36.8293 436.75 36.8293 436.49 37.2193C436.22 37.5993 435.91 37.7793 435.63 38.2393C435.17 38.9093 434.38 39.3493 433.48 39.5293C433.03 39.6193 432.56 39.6493 432.09 39.6093C431.63 39.5893 431.17 39.5493 430.74 39.4093C429.3 38.9593 427.72 39.2093 426.13 39.4993C425.71 39.5793 425.4 39.6393 424.88 39.7193C424.37 39.7893 423.86 39.8493 423.35 39.8793C422.86 39.8993 422.33 39.9493 421.91 39.8593C421.48 39.7793 421.07 39.6693 420.67 39.5093C420.45 39.4193 419.9 39.7293 419.57 39.9493C417.13 41.5393 414.6 40.9393 412.18 40.8193C411.66 40.7993 410.92 40.9193 410.6 41.2493C408.56 43.4793 406.67 44.1593 404.19 43.3793C403.36 43.1193 402.5 42.6893 401.65 42.7693C398.3 43.1293 395.42 42.2493 392.92 40.1393C392.64 39.9093 391.81 39.8593 391.69 40.0393C390.3 42.2293 389.71 40.6293 388.76 39.7393C388.03 39.0493 387.13 37.7993 385.82 39.3793C385.66 39.5693 384.87 39.3993 384.55 39.1393C382.83 37.7093 380.82 37.9693 379.07 38.6693C376.78 39.4093 376.48 37.1093 376.06 36.9493C375.24 36.5993 374.68 36.3593 373.92 35.8893C373.58 36.5393 373.11 36.4393 372.68 37.0093C372.56 37.1593 371.99 37.0293 371.67 36.9093C371.1 36.6993 370.57 36.1993 370.01 36.1793C364.52 36.0093 363.52 35.5293 359.17 33.2793C358.56 32.9693 357.75 32.7793 357.05 32.7993C355.31 32.8493 353.1 31.6693 351.9 33.4893C351.81 33.6293 351.03 33.5593 350.58 33.5593C346.97 33.4793 343.38 34.9893 340.1 36.9193C339.18 37.4593 338.15 38.2093 337.63 38.9593C336.65 40.3793 335.59 40.6193 334.18 40.1993C332.83 39.8293 331.51 39.5893 330.38 41.2293C330.24 41.4293 329.73 41.6393 329.39 41.6993C326.94 42.0893 324.38 42.4893 322.02 42.2193C316.49 41.6093 311.67 41.3493 306.09 42.3993C305.69 42.4793 305.13 42.5693 304.83 42.4193C302.92 41.5093 301.02 40.6393 299.07 39.8593C298.11 39.4693 297.11 39.0193 296.17 38.6693C295.31 38.3293 294.41 38.0593 293.51 37.8393C292.19 37.5493 290.23 37.9493 290.21 35.8993C290.21 35.7693 289.68 35.5293 289.39 35.4993C285.13 35.2093 280.86 35.7793 276.7 36.7393C274.94 37.1193 273.33 37.5993 271.43 37.8193C269.44 38.0693 267.64 37.9193 265.78 37.5593C264.54 37.3093 263.32 37.4793 262.22 38.2093C261.81 38.4793 261.11 38.7393 260.61 38.7393C257.86 38.6793 255.15 38.3993 252.4 38.4693C250.26 38.5193 248.07 38.9693 245.9 39.2293C245.58 39.2693 245 39.3993 244.97 39.3593C244.17 38.3093 242.98 39.1393 241.87 39.2793C240.68 39.4393 239.45 39.4493 238.25 39.4793C237.64 39.4893 237.01 39.2793 236.44 39.3593C233.68 39.7493 231.14 40.3893 228.14 39.7793C226.45 39.4493 223.75 40.1393 221.5 40.3493H216.68C215.84 39.8893 214.93 40.0193 213.86 40.3693C213.39 40.5293 212.56 40.7193 212.17 40.6493C209.83 40.2493 207.96 40.8993 205.86 41.2093C203.99 41.4993 201.94 41.8893 200 41.3393C198.7 40.9793 197.37 41.1793 196.2 41.6093C195.16 41.9993 194.04 42.0193 193.16 41.6793C191.73 41.1193 189.48 41.1693 187.86 40.8593C185.81 40.4393 184.05 40.8593 182.17 40.8893C181.19 40.9193 180.17 41.0093 179.22 40.9693C177.12 40.8693 175.19 40.9493 173.22 41.2093C172.65 41.2893 171.52 41.3293 171.2 41.1593C170.51 40.8193 169.76 40.6693 168.99 40.5493C168.23 40.3693 167.43 40.2293 166.62 40.0393C165.51 39.7693 164.36 39.4093 163.31 38.9793C160.95 38.0293 158.71 36.9493 156.4 36.0893C155.97 35.9393 155.36 35.7893 155.04 35.8293C153.23 36.0393 151.89 35.5493 150.24 35.1193C149.16 34.8793 147.5 34.6193 145.93 35.0693C145.37 35.2393 144.07 35.1093 143.57 34.8493C142.2 34.1193 141.11 34.0693 139.52 34.6993C138.17 35.2193 136.43 35.8593 134.95 35.8793C132.57 35.8993 130.22 35.4793 127.97 34.9993C123.52 34.0393 118.79 33.9993 114.49 32.4593C114.01 32.2893 113.09 32.4793 112.69 32.8593C111.08 34.3793 109.29 34.0093 107.74 33.8493C107.08 33.7493 106.49 33.8893 105.94 34.1293C105.39 34.3693 104.84 34.6493 104.37 34.9893C103.91 35.3393 103.48 35.6593 103 35.8793C102.49 36.1093 101.7 36.3393 100.95 36.3093C99.73 36.3193 98.33 38.2893 96.79 38.6593C95.37 38.9493 93.81 38.1593 92.36 38.2193C89.96 38.3593 87.8 40.1793 85.18 39.3793C84.98 39.3193 84.51 39.6793 84.25 39.8993C83.3 40.7093 82.82 40.6393 81.93 39.6493C80.68 38.2493 77.9 37.7093 76.81 38.2093C74.24 39.3993 71.3 38.9993 68.55 38.8193C67.02 38.6893 65.69 38.6593 64.5 38.9993C63.24 39.3493 62.43 39.4493 61.27 38.8193C60.5 38.3893 59.36 37.9493 57.88 38.7593C56.71 39.3893 54.2 39.2093 52.56 38.5893C49.79 37.5593 45.9 37.8993 43.02 37.0193C42.82 36.9593 42.27 37.0593 41.95 37.1393C39.56 37.6993 37.18 37.2593 34.79 37.1393C34.29 37.1093 33.56 37.1393 33.26 37.2893C31.32 38.2493 29.51 38.5593 27.09 38.2193C26.28 38.1093 25.41 37.9393 24.59 37.9993C21.36 38.2793 18.54 38.1293 15.91 37.3293C15.61 37.2293 14.81 37.3193 14.72 37.4293C13.63 38.7693 12.91 38.0393 11.89 37.7193C11.11 37.4693 10.05 36.9193 9.09 38.1093C8.97 38.2493 8.22 38.3393 7.89 38.2893C6.88 38.0593 5.88 38.2193 5 38.5993V34.3193L5.03 34.2393Z" fill="white"/>
</g>
<path d="M106 31L106 2" stroke="white" stroke-width="3" stroke-linecap="round" stroke-linejoin="round"/>
<path d="M167 38L167 2" stroke="white" stroke-width="3" stroke-linecap="round" stroke-linejoin="round"/>
<path d="M228 38L228 2" stroke="white" stroke-width="3" stroke-linecap="round" stroke-linejoin="round"/>
<path d="M289 34L289 2" stroke="white" stroke-width="3" stroke-linecap="round" stroke-linejoin="round"/>
<path d="M350 31L350 2" stroke="white" stroke-width="3" stroke-linecap="round" stroke-linejoin="round"/>
<path d="M411 34.97V1.58008" stroke="white" stroke-width="3" stroke-linecap="round" stroke-linejoin="round"/>
<path d="M472 36L472 2" stroke="white" stroke-width="3" stroke-linecap="round" stroke-linejoin="round"/>
<path d="M533 34.97V1.58008" stroke="white" stroke-width="3" stroke-linecap="round" stroke-linejoin="round"/>
<path d="M594 33.97V1.58008" stroke="white" stroke-width="3" stroke-linecap="round" stroke-linejoin="round"/>
<path d="M655 33L655 2" stroke="white" stroke-width="3" stroke-linecap="round" stroke-linejoin="round"/>
<defs>
<filter id="filter0_d_2250_37" x="0" y="23.1367" width="758.98" height="29.0723" filterUnits="userSpaceOnUse" color-interpolation-filters="sRGB">
<feFlood flood-opacity="0" result="BackgroundImageFix"/>
<feColorMatrix in="SourceAlpha" type="matrix" values="0 0 0 0 0 0 0 0 0 0 0 0 0 0 0 0 0 0 127 0" result="hardAlpha"/>
<feOffset dy="3"/>
<feGaussianBlur stdDeviation="2.5"/>
<feComposite in2="hardAlpha" operator="out"/>
<feColorMatrix type="matrix" values="0 0 0 0 0 0 0 0 0 0 0 0 0 0 0 0 0 0 0.25 0"/>
<feBlend mode="normal" in2="BackgroundImageFix" result="effect1_dropShadow_2250_37"/>
<feBlend mode="normal" in="SourceGraphic" in2="effect1_dropShadow_2250_37" result="shape"/>
</filter>
</defs>
</svg>
