<svg width="45" height="45" viewBox="0 0 45 45" fill="none" xmlns="http://www.w3.org/2000/svg">
<path d="M22.5 44C34.3741 44 44 34.3741 44 22.5C44 10.6259 34.3741 1 22.5 1C10.6259 1 1 10.6259 1 22.5C1 34.3741 10.6259 44 22.5 44Z" fill="#2E7D32" stroke="#A5D6A7" stroke-width="2" stroke-miterlimit="10"/>
<path d="M24.52 16.7206C24.88 16.7206 24.99 16.9306 24.94 17.3506L22.86 30.0006C22.71 30.8106 22.89 31.1606 23.54 31.1606H24.76C25.03 31.1606 25.17 31.3706 25.12 31.6906L24.76 34.0106C24.67 34.4306 24.49 34.6406 24.17 34.7806C23.55 35.0606 22.72 35.2006 21.8 35.2006C19.07 35.2006 17.95 33.6206 18.51 30.0706L20.02 20.8606C19.31 20.7906 18.57 20.6806 18 20.5406C17.7 20.4706 17.58 20.2606 17.64 19.8706L18.06 17.2306C18.12 16.9106 18.33 16.7006 18.59 16.7006H24.52V16.7206ZM26.18 10.6805C26.03 11.4505 25.68 12.6105 25.14 13.6705C24.87 14.1605 24.64 14.3706 24.01 14.3706H21.58C21.22 14.3706 21.11 14.1606 21.19 13.7406L21.72 10.4406C21.78 10.0206 21.96 9.81055 22.31 9.81055H25.78C26.14 9.81055 26.25 10.0206 26.2 10.4406L26.17 10.6906L26.18 10.6805Z" fill="#C8E6C9"/>
</svg>
