<svg width="38" height="29" viewBox="0 0 38 29" fill="none" xmlns="http://www.w3.org/2000/svg">
<path d="M29.12 22.7599C29.24 22.3399 29.11 21.8899 28.78 21.5999L20.65 14.2998C20.29 13.9698 19.76 13.9099 19.32 14.1499C18.89 14.3899 18.66 14.8699 18.74 15.3499L20.6 25.9899C20.67 26.4099 20.97 26.7599 21.38 26.8899C21.79 27.0299 22.24 26.9099 22.54 26.6099L23.43 25.7199L24.94 28.3699C25.1 28.6499 25.37 28.8499 25.68 28.9199C25.76 28.9399 25.85 28.9498 25.94 28.9498C26.17 28.9498 26.39 28.8799 26.58 28.7499L28.64 27.3599C28.9 27.1799 29.08 26.9099 29.13 26.5999C29.18 26.2899 29.1 25.9699 28.91 25.7199L27.42 23.7499L28.21 23.5899C28.64 23.5099 28.98 23.1899 29.1 22.7699L29.12 22.7599ZM27.45 26.3098L26.09 27.2299L24.29 24.0698C24.17 23.8598 23.96 23.7198 23.72 23.6898C23.69 23.6898 23.65 23.6898 23.62 23.6898C23.42 23.6898 23.22 23.7699 23.07 23.9199L22 24.9899L20.47 16.2199L27.17 22.2399L25.94 22.4799C25.68 22.5299 25.46 22.7099 25.37 22.9599C25.28 23.2099 25.32 23.4898 25.48 23.6998L27.47 26.3198L27.45 26.3098Z" fill="#B0BEC5"/>
<path d="M12.7 7.08008L11.81 9.45007L10.9 7.08008C10.79 6.78008 10.5 6.58008 10.18 6.58008C9.85999 6.58008 9.57002 6.78008 9.46002 7.08008L8.57 9.45007L7.66003 7.08008C7.51003 6.68008 7.06003 6.48013 6.66003 6.63013C6.26003 6.78013 6.06003 7.23013 6.22003 7.63013L7.85003 11.9102C7.96003 12.2102 8.25 12.4102 8.57 12.4102C8.89 12.4102 9.18004 12.2102 9.29004 11.9102L10.18 9.54016L11.09 11.9102C11.2 12.2102 11.49 12.4102 11.81 12.4102C12.13 12.4102 12.42 12.2102 12.53 11.9102L14.14 7.63013C14.29 7.23013 14.09 6.79014 13.69 6.64014C13.29 6.49014 12.85 6.69009 12.7 7.09009V7.08008Z" fill="#B0BEC5"/>
<path d="M20.34 12.4099C20.66 12.4099 20.95 12.2099 21.06 11.9099L22.67 7.62988C22.82 7.22988 22.62 6.78989 22.22 6.63989C21.82 6.48989 21.38 6.68984 21.23 7.08984L20.34 9.45984L19.43 7.08984C19.32 6.78984 19.03 6.58984 18.71 6.58984C18.39 6.58984 18.1 6.78984 17.99 7.08984L17.1 9.45984L16.19 7.08984C16.04 6.68984 15.59 6.48989 15.19 6.63989C14.79 6.78989 14.59 7.23989 14.74 7.63989L16.37 11.9199C16.48 12.2199 16.77 12.4199 17.09 12.4199C17.41 12.4199 17.7 12.2199 17.81 11.9199L18.7 9.5498L19.61 11.9199C19.72 12.2199 20.01 12.4199 20.33 12.4199L20.34 12.4099Z" fill="#B0BEC5"/>
<path d="M25.48 12.4099C25.8 12.4099 26.09 12.2099 26.2 11.9099L27.09 9.53992L28 11.9099C28.11 12.2099 28.4 12.4099 28.72 12.4099C29.04 12.4099 29.33 12.2099 29.44 11.9099L31.05 7.62988C31.2 7.22988 31 6.78989 30.6 6.63989C30.2 6.48989 29.76 6.68984 29.61 7.08984L28.72 9.45984L27.81 7.08984C27.7 6.78984 27.41 6.58984 27.09 6.58984C26.77 6.58984 26.48 6.78984 26.37 7.08984L25.48 9.45984L24.57 7.08984C24.42 6.68984 23.97 6.48989 23.57 6.63989C23.17 6.78989 22.97 7.23989 23.12 7.63989L24.75 11.9199C24.86 12.2199 25.15 12.4199 25.47 12.4199L25.48 12.4099Z" fill="#B0BEC5"/>
<path d="M31.93 0H5.15002C2.31002 0 0 2.31002 0 5.15002V13.39C0 16.23 2.31002 18.54 5.15002 18.54H17.48C17.91 18.54 18.25 18.19 18.25 17.77C18.25 17.35 17.9 17 17.48 17H5.15002C3.16002 17 1.54004 15.38 1.54004 13.39V5.15002C1.54004 3.16002 3.16002 1.54004 5.15002 1.54004H31.93C33.92 1.54004 35.54 3.16002 35.54 5.15002V13.39C35.54 15.38 33.92 17 31.93 17H26.45C26.02 17 25.68 17.35 25.68 17.77C25.68 18.19 26.03 18.54 26.45 18.54H31.93C34.77 18.54 37.08 16.23 37.08 13.39V5.15002C37.08 2.31002 34.77 0 31.93 0Z" fill="#B0BEC5"/>
</svg>
