<svg width="64" height="71" viewBox="0 0 64 71" fill="none" xmlns="http://www.w3.org/2000/svg">
<path d="M62.88 26.8398V29.8298L62.89 34.1099L62.94 62.7399C62.94 62.7399 62.94 62.7399 62.94 62.7499C63.22 65.5899 56.46 68.3899 46.73 69.8499C43.94 70.2699 40.91 70.5799 37.72 70.7499C34.54 70.9199 31.47 70.9298 28.63 70.8098C18.72 70.3898 11.49 68.3399 11.21 65.4899C11.21 65.4899 11.21 65.4899 11.21 65.4799L5.69999 37.1399L4.87999 32.9098L4.29999 29.9498L62.86 26.8499L62.88 26.8398Z" fill="url(#paint0_linear_2240_77)"/>
<path d="M42.47 27.8105L44.8 70.1006C42.01 70.5206 40.92 70.5706 37.74 70.7406C34.56 70.9106 33.51 71.0006 30.67 70.8806L26.74 28.9706L42.47 27.8206V27.8105Z" fill="#8BC34A"/>
<path opacity="0.3" d="M62.89 29.8301V34.1101C60.44 35.9401 54.73 37.6301 47.28 38.7601C46.56 38.8701 45.83 38.9701 45.08 39.0701C41.87 39.4901 38.39 39.8201 34.74 40.0101C31.09 40.2001 27.58 40.25 24.32 40.17C23.56 40.15 22.82 40.1301 22.09 40.0901C14.49 39.7501 8.51002 38.6801 5.72002 37.1301L4.90002 32.9001C7.47002 34.5901 13.68 35.7701 21.7 36.1301C22.37 36.1601 23.06 36.1801 23.76 36.2001C27.07 36.2901 30.64 36.24 34.35 36.05C38.06 35.85 41.6 35.5201 44.86 35.0901C45.55 35.0001 46.22 34.9 46.89 34.8C54.75 33.6 60.68 31.7801 62.89 29.8401V29.8301Z" fill="#C45422"/>
<path d="M63.77 17.3598C63.77 17.4198 63.77 17.4699 63.76 17.5299V18.0998L63.98 29.5698C64.23 32.1598 57.28 34.7598 47.04 36.3198C43.24 36.8998 39 37.3398 34.5 37.5698C30 37.8098 25.72 37.8199 21.85 37.6499C11.42 37.1799 4.03001 35.3398 3.78001 32.7598L1.76001 21.3898L1.66001 20.8298C1.64001 20.7698 1.63002 20.7197 1.61002 20.6597C1.62002 19.6497 2.40002 18.6598 3.90002 17.7198C6.67002 16.1398 11.74 14.7097 18.15 13.6697C22.19 13.0197 26.76 12.5198 31.63 12.2498C31.76 12.2498 31.9 12.2398 32.03 12.2298C32.16 12.2298 32.3 12.2198 32.43 12.2098C32.5 12.2098 32.56 12.2098 32.63 12.2098C37.42 11.9798 41.98 11.9898 46.05 12.2098C52.09 12.5298 57.07 13.3198 60.19 14.4298C62.31 15.2598 63.54 16.2598 63.77 17.3898V17.3598Z" fill="url(#paint1_linear_2240_77)"/>
<path d="M42.49 12.0694L44.05 36.7595C40.25 37.3395 39.45 37.5894 34.95 37.8294C30.45 38.0694 30.66 37.9694 26.8 37.7994L23.1 12.8194C27.14 12.1694 26.76 12.5095 31.63 12.2395C31.76 12.2395 31.9 12.2295 32.03 12.2195C32.16 12.2195 32.3 12.2094 32.43 12.1994C32.5 12.1994 32.56 12.1994 32.63 12.1994C37.42 11.9694 38.42 11.8695 42.49 12.0895V12.0694Z" fill="#8BC34A"/>
<path d="M63.75 17.0801C63.77 17.2601 63.75 17.4302 63.72 17.6102C63.13 20.2302 56.31 22.7902 46.53 24.3602C45.67 24.5002 44.79 24.6302 43.89 24.7502L22.73 25.8702C21.81 25.8402 20.91 25.8102 20.04 25.7602C10.05 25.2302 2.81001 23.4202 1.72001 20.8902C1.65001 20.7202 1.60001 20.5502 1.58001 20.3702C1.58001 20.3002 1.57001 20.2301 1.58001 20.1601C1.59001 19.1501 2.37 18.1601 3.87 17.2201C6.67 15.4701 12 13.9202 19.56 12.8702C23.09 12.3802 27.11 11.9902 31.59 11.7502C31.72 11.7502 31.86 11.7402 31.99 11.7302C32.12 11.7302 32.26 11.7201 32.39 11.7101C32.46 11.7101 32.52 11.7101 32.59 11.7001C36.97 11.4801 40.96 11.4501 44.51 11.5601C51.57 11.8001 56.9 12.6501 60.15 13.9101C62.27 14.7401 63.5 15.7402 63.73 16.8702C63.74 16.9402 63.76 17.0101 63.76 17.0801H63.75Z" fill="#C66C0A"/>
<path d="M43.3 24.7101L24.94 25.7502L23.97 19.4101L21.99 12.9802C25.52 12.4902 27.09 12.0002 31.57 11.7502C31.7 11.7502 31.84 11.7402 31.97 11.7302C32.1 11.7302 32.24 11.7201 32.37 11.7101C32.44 11.7101 32.5 11.7101 32.57 11.7001C36.95 11.4801 40.94 11.4501 44.49 11.5601L42.9 18.3101L43.29 24.7101H43.3Z" fill="#689F38"/>
<path d="M62.16 7.56995C61.53 5.43995 59.4 4.78992 59.4 4.78992C59.4 4.78992 57.59 4.46992 55.28 4.41992C55.7 6.31992 53.1 13.4599 46.23 15.4299C43.09 16.3299 39 16.7499 35.43 16.9399C34.49 17.8799 33.91 18.49 33.91 18.49L34.19 20.38C34.19 20.38 46.35 21.49 53.16 18.77C62.48 15.05 62.67 9.29996 62.17 7.57996L62.16 7.56995Z" fill="#558B2F"/>
<path d="M29.73 18.5207C29.73 18.5207 36.17 13.7106 41.55 6.9406C48.46 -1.0394 58.5 3.4306 61.22 5.9406C59.72 4.5806 54.45 4.17065 51.73 7.62065C49.01 11.0707 43.93 18.5206 35 20.8006C30.22 20.3506 29.73 18.5307 29.73 18.5307V18.5207Z" fill="#7CB342"/>
<path d="M22.35 15.6314C23.38 17.2014 24.42 18.3514 25.4 19.2214C30.06 20.5014 34.57 20.9014 38.08 19.6514C38.08 19.6514 33.81 19.9314 29.64 13.6014C25.47 7.2714 21.76 2.07135 16.39 1.93135C14.58 1.88135 12.99 2.96136 11.98 4.56136C15.89 6.11136 18.97 10.5114 22.36 15.6414L22.35 15.6314Z" fill="#558B2F"/>
<path d="M15.27 15.2807C7.62001 11.5107 11.01 1.78057 16.38 1.93057C17.38 1.96057 18.33 2.16066 19.23 2.52066C19.23 2.52066 11.75 -0.549334 6.29002 0.150666C0.820018 0.850666 -1.92998 8.26064 3.47002 13.3706C8.55002 18.1706 25.25 20.9906 32.06 20.3806C26.79 20.1106 20.67 17.9606 15.26 15.2906L15.27 15.2807Z" fill="#7CB342"/>
<path d="M29.85 13.921C29.85 13.921 32.68 17.711 30.6 20.441C35.05 21.871 39.45 20.7711 40.13 20.3511C40.81 19.9311 40.31 13.741 36 13.041C33.32 14.421 32.04 14.351 29.85 13.921Z" fill="#8BC34A"/>
<defs>
<linearGradient id="paint0_linear_2240_77" x1="4.31999" y1="48.8598" x2="62.96" y2="48.8598" gradientUnits="userSpaceOnUse">
<stop stop-color="#B96E16"/>
<stop offset="0.5" stop-color="#DA811A"/>
<stop offset="1" stop-color="#F7931E"/>
</linearGradient>
<linearGradient id="paint1_linear_2240_77" x1="1.61002" y1="24.8898" x2="63.98" y2="24.8898" gradientUnits="userSpaceOnUse">
<stop stop-color="#B96E16"/>
<stop offset="0.5" stop-color="#DA811A"/>
<stop offset="1" stop-color="#F7931E"/>
</linearGradient>
</defs>
</svg>
