<svg width="65" height="79" viewBox="0 0 65 79" fill="none" xmlns="http://www.w3.org/2000/svg">
<path d="M63.88 34.4395V37.4295L63.89 41.7095L63.94 70.3395C63.94 70.3395 63.94 70.3395 63.94 70.3495C64.22 73.1895 57.46 75.9895 47.73 77.4495C44.94 77.8695 41.91 78.1795 38.72 78.3495C35.54 78.5195 32.47 78.5295 29.63 78.4095C19.72 77.9895 12.49 75.9395 12.21 73.0895C12.21 73.0895 12.21 73.0895 12.21 73.0795L6.69999 44.7395L5.87999 40.5095L5.29999 37.5495L63.86 34.4495L63.88 34.4395Z" fill="#4CAF50"/>
<path d="M45.47 35.4199L47.75 77.4499C44.96 77.8699 41.93 78.1799 38.74 78.3499C35.56 78.5199 32.49 78.5299 29.65 78.4099L23.73 36.5699L45.46 35.4199H45.47Z" fill="#E53935"/>
<path opacity="0.3" d="M63.89 37.4297V41.7097C61.44 43.5397 55.73 45.2297 48.28 46.3597C47.56 46.4697 46.83 46.5697 46.08 46.6697C42.87 47.0897 39.39 47.4197 35.74 47.6097C32.09 47.7997 28.58 47.8497 25.32 47.7697C24.56 47.7497 23.82 47.7296 23.09 47.6896C15.49 47.3496 9.51002 46.2797 6.72002 44.7297L5.90002 40.4997C8.47002 42.1897 14.68 43.3697 22.7 43.7297C23.37 43.7597 24.06 43.7797 24.76 43.7997C28.07 43.8897 31.64 43.8397 35.35 43.6497C39.06 43.4497 42.6 43.1196 45.86 42.6896C46.55 42.5996 47.22 42.4997 47.89 42.3997C55.75 41.1997 61.68 39.3796 63.89 37.4396V37.4297Z" fill="#7E570C"/>
<path d="M64.77 24.9594C64.77 25.0194 64.77 25.0693 64.76 25.1293V25.6993L64.98 37.1694C65.23 39.7594 58.28 42.3594 48.04 43.9194C44.24 44.4994 40 44.9394 35.5 45.1694C31 45.4094 26.72 45.4194 22.85 45.2494C12.42 44.7794 5.03001 42.9394 4.78001 40.3594L2.76001 28.9894L2.66001 28.4294C2.64001 28.3694 2.63002 28.3193 2.61002 28.2593C2.62002 27.2493 3.40002 26.2593 4.90002 25.3193C7.67002 23.7393 12.74 22.3094 19.15 21.2694C23.19 20.6194 27.76 20.1194 32.63 19.8494C32.76 19.8494 32.9 19.8394 33.03 19.8294C33.16 19.8294 33.3 19.8194 33.43 19.8094C33.5 19.8094 33.56 19.8094 33.63 19.8094C38.42 19.5794 42.98 19.5894 47.05 19.8094C53.09 20.1294 58.07 20.9194 61.19 22.0294C63.31 22.8594 64.54 23.8594 64.77 24.9894V24.9594Z" fill="#4CAF50"/>
<path d="M47.04 19.7799L48.04 43.9099C44.24 44.4899 40 44.9299 35.5 45.1599C31 45.3999 26.72 45.4099 22.85 45.2399L19.15 21.2499C23.19 20.5999 27.76 20.0998 32.63 19.8298C32.76 19.8298 32.9 19.8199 33.03 19.8099C33.16 19.8099 33.3 19.7999 33.43 19.7899C33.5 19.7899 33.56 19.7899 33.63 19.7899C38.42 19.5599 42.98 19.5699 47.05 19.7899L47.04 19.7799Z" fill="#E53935"/>
<path d="M64.75 24.6894C64.77 24.8694 64.75 25.0395 64.72 25.2195C64.13 27.8395 57.31 30.3995 47.53 31.9695C46.67 32.1095 45.79 32.2395 44.89 32.3595L23.73 33.4795C22.81 33.4495 21.91 33.4195 21.04 33.3695C11.05 32.8395 3.81001 31.0295 2.72001 28.4995C2.65001 28.3295 2.60001 28.1595 2.58001 27.9795C2.58001 27.9095 2.57001 27.8395 2.58001 27.7695C2.59001 26.7595 3.37 25.7695 4.87 24.8295C7.67 23.0795 13 21.5295 20.56 20.4795C24.09 19.9895 28.11 19.5995 32.59 19.3595C32.72 19.3595 32.86 19.3495 32.99 19.3395C33.12 19.3395 33.26 19.3295 33.39 19.3195C33.46 19.3195 33.52 19.3195 33.59 19.3095C37.97 19.0895 41.96 19.0595 45.51 19.1695C52.57 19.4095 57.9 20.2595 61.15 21.5195C63.27 22.3495 64.5 23.3495 64.73 24.4795C64.74 24.5495 64.76 24.6194 64.76 24.6894H64.75Z" fill="#43A047"/>
<path d="M47.57 32.2192L21.04 33.6292V33.3792L20.55 20.4893C24.08 19.9993 28.1 19.6093 32.58 19.3693C32.71 19.3693 32.85 19.3593 32.98 19.3493C33.11 19.3493 33.25 19.3392 33.38 19.3292C33.45 19.3292 33.51 19.3292 33.58 19.3192C37.96 19.0992 41.95 19.0693 45.5 19.1793L47.53 31.9793L47.57 32.2293V32.2192Z" fill="#D32F2F"/>
<path d="M2.91 18.2593C4.13 19.2093 5.58 19.8393 7.05 20.3793C13.97 22.9293 21.67 24.0893 28.97 24.9493C29.54 25.0193 30.12 25.0693 30.69 25.1293C31.23 25.1793 31.77 25.2293 32.31 25.2793C32.42 25.2793 32.54 25.2994 32.64 25.2494C32.65 25.2494 32.66 25.2394 32.67 25.2294C33.07 24.9594 32.33 23.5494 32.2 23.2394C28.78 15.6294 23.18 4.31932 17.29 2.25932C16.31 1.91932 14.95 1.66937 13.88 2.05937C11.04 3.10937 12 6.77937 12.33 8.92937C12.35 9.07937 12.37 9.22937 12.3 9.36937C12.13 9.69937 11.34 9.66935 11.02 9.65935C10.43 9.65935 9.85 9.63937 9.27 9.67937C6.89 9.82937 4.44 10.3794 2.34 11.3694C0.460003 12.2594 0.220004 13.8993 0.810004 15.4493C1.21 16.5093 2 17.5394 2.91 18.2494V18.2593Z" fill="white"/>
<path d="M3.31 18.2398C4.53 19.1898 5.98 19.8198 7.45 20.3598C14.37 22.9098 22.07 24.0698 29.37 24.9298C29.94 24.9998 30.52 25.0498 31.09 25.1098C31.63 25.1598 32.17 25.2098 32.71 25.2598C32.82 25.2598 32.94 25.2798 33.04 25.2298C33.05 25.2298 33.06 25.2198 33.07 25.2098C33.47 24.9398 32.73 23.5298 32.6 23.2198C29.18 15.6098 23.58 4.29983 17.69 2.23983C16.71 1.89983 15.35 1.64982 14.28 2.03982C11.44 3.08982 12.4 6.75982 12.73 8.90982C12.75 9.05982 12.77 9.20982 12.7 9.34982C12.53 9.67982 11.74 9.6498 11.42 9.6398C10.83 9.6398 10.25 9.61982 9.67 9.65982C7.29 9.80982 4.84 10.3598 2.74 11.3498C0.859997 12.2398 0.619998 13.8798 1.21 15.4298C1.61 16.4898 2.4 17.5198 3.31 18.2298V18.2398Z" fill="#E53935"/>
<path d="M3.31001 18.239C4.53001 19.189 5.98001 19.819 7.45001 20.359C14.37 22.909 22.07 24.069 29.37 24.929C29.94 24.999 30.52 25.049 31.09 25.109C28.99 22.559 23.05 18.739 15.39 16.059C5.31001 12.529 1.41001 14.879 1.20001 15.419C1.20001 15.419 1.20001 15.419 1.20001 15.429C1.60001 16.489 2.39001 17.519 3.30001 18.229L3.31001 18.239Z" fill="#C62828"/>
<path d="M61.78 14.6292C60.79 15.7292 59.49 16.5392 58.17 17.2592C51.92 20.6692 44.58 22.8092 37.58 24.5992C37.03 24.7392 36.48 24.8692 35.93 24.9992C35.41 25.1192 34.89 25.2392 34.36 25.3492C34.25 25.3692 34.14 25.3992 34.03 25.3692C34.02 25.3692 34 25.3692 33.99 25.3592C33.54 25.1492 33.95 23.6592 34.02 23.3392C35.71 15.3992 38.72 3.52921 44.06 0.729213C44.95 0.259213 46.24 -0.160792 47.38 0.0992076C50.41 0.769208 50.28 4.50922 50.43 6.66922C50.44 6.81922 50.46 6.96921 50.55 7.09921C50.79 7.40921 51.56 7.2692 51.88 7.2192C52.46 7.1392 53.03 7.04918 53.61 7.00918C55.99 6.84918 58.52 7.0692 60.82 7.7792C62.87 8.4092 63.47 9.99921 63.23 11.5992C63.07 12.6992 62.52 13.8092 61.78 14.6292Z" fill="white"/>
<path d="M62.19 14.6097C61.2 15.7097 59.9 16.5197 58.58 17.2397C52.33 20.6497 44.99 22.7897 37.99 24.5797C37.44 24.7197 36.89 24.8497 36.34 24.9797C35.82 25.0997 35.3 25.2197 34.77 25.3297C34.66 25.3497 34.55 25.3797 34.44 25.3497C34.43 25.3497 34.41 25.3497 34.4 25.3397C33.95 25.1297 34.36 23.6397 34.43 23.3197C36.12 15.3797 39.13 3.50968 44.47 0.709681C45.36 0.239681 46.65 -0.180324 47.79 0.0796764C50.82 0.749676 50.69 4.48968 50.84 6.64968C50.85 6.79968 50.87 6.94968 50.96 7.07968C51.2 7.38968 51.97 7.24967 52.29 7.19967C52.87 7.11967 53.44 7.02971 54.02 6.98971C56.4 6.82971 58.93 7.04967 61.23 7.75967C63.28 8.38967 63.88 9.97968 63.64 11.5797C63.48 12.6797 62.93 13.7897 62.19 14.6097Z" fill="#E53935"/>
<path d="M62.19 14.6101C61.2 15.7101 59.9 16.5201 58.58 17.2401C52.33 20.6501 44.99 22.7901 37.99 24.5801C37.44 24.7201 36.89 24.8501 36.34 24.9801C37.84 22.2001 42.85 17.6601 49.8 14.0301C58.96 9.25009 63.32 11.0601 63.64 11.5701C63.64 11.5701 63.64 11.5701 63.64 11.5801C63.48 12.6801 62.93 13.7901 62.19 14.6101Z" fill="#C62828"/>
<path d="M27.17 27.6695C27.17 27.6695 27.13 27.6995 27.11 27.7095C24.32 29.5495 21.45 31.0595 18.5 32.2495C18.1 32.4095 17.7 32.5695 17.3 32.7195C19.64 32.7195 21.93 32.5095 24.17 32.0695C23.17 33.6695 22.17 35.2995 21.18 36.9695C26.44 34.3495 31.44 30.6195 36.17 25.7695C35.3 24.6595 34.45 23.6395 33.61 22.6895C31.51 24.5495 29.37 26.2095 27.17 27.6695Z" fill="#C62828"/>
<path d="M41.98 27.2598C41.98 27.2598 42.03 27.2798 42.05 27.2998C45.17 28.8298 48.31 30.0198 51.46 30.8898C51.89 31.0098 52.31 31.1198 52.74 31.2198C50.42 31.4798 48.11 31.4998 45.81 31.2998C47.12 32.7798 48.42 34.2898 49.72 35.8298C44 33.7898 38.33 30.6198 32.7 26.3298C33.35 25.1398 33.99 24.0398 34.63 23.0098C37.07 24.6298 39.51 26.0498 41.97 27.2598H41.98Z" fill="#C62828"/>
<path d="M37.81 24.7404C37.94 26.0804 36.43 27.2604 34.43 27.3704C32.43 27.4804 30.71 26.4703 30.58 25.1303C30.45 23.7903 31.96 22.6104 33.96 22.5004C35.96 22.3904 37.68 23.4004 37.81 24.7404Z" fill="#B71C1C"/>
</svg>
