<svg width="72" height="81" viewBox="0 0 72 81" fill="none" xmlns="http://www.w3.org/2000/svg">
<path d="M0.67 6.02888C0.18 4.21888 0.589998 2.67891 1.84 1.55891C2.81 0.69891 3.64 0.788861 4.17 1.00886C5.53 1.59886 6.76 3.86886 7.81 7.75886C8.57 10.5789 8.96 13.1889 8.98 13.2989C9 13.4489 8.96 13.6089 8.87 13.7289C8.78 13.8489 8.65 13.9189 8.52 13.9189C6.51 13.9089 1.7 9.83886 0.67 6.00886V6.02888ZM2.38 2.37886C1.44 3.21886 1.16 4.29885 1.53 5.68885C2.37 8.81885 6.09 12.1189 7.98 12.7789C7.43 9.49888 5.91 2.8889 3.84 1.9889C3.7 1.9289 3.56 1.89888 3.42 1.89888C3.09 1.89888 2.75 2.05886 2.38 2.37886Z" fill="#1A7A3D"/>
<path d="M42.02 77.5692C49.79 81.0692 57.72 82.8693 65.4 77.9693C68.99 75.6793 71.51 72.1193 71.18 67.9893C70.92 64.7493 68.78 62.0093 66.01 59.6593M66.01 59.6593C64.83 58.6593 63.53 57.7293 62.21 56.8693C61.76 56.5693 61.29 56.2693 60.83 55.9893C60.67 55.8893 60.52 55.7992 60.36 55.6992C60.13 55.5492 59.9 55.3992 59.67 55.2592C59.67 55.2592 59.66 55.2592 59.65 55.2592C58.26 54.4292 56.93 53.6592 55.75 52.9392C55.25 52.6292 54.75 52.3093 54.26 51.9793C53.98 51.7893 53.72 51.5993 53.45 51.3993C53.31 51.2993 53.17 51.1993 53.03 51.0893C52.8 50.9193 52.58 50.7393 52.36 50.5593C50.96 49.4193 49.68 48.1492 48.58 46.7692C48.29 46.3992 48.02 46.0393 47.76 45.6593C47.53 45.3293 47.3 44.9892 47.09 44.6392C46.87 44.2992 46.67 43.9493 46.47 43.5893C45.93 42.5893 45.48 41.5292 45.12 40.4392C45.06 40.2492 45 40.0593 44.95 39.8693C44.84 39.4693 44.74 39.0592 44.66 38.6492C44.15 36.0992 44.27 33.5192 44.61 30.9392C44.66 30.5492 44.71 30.1592 44.78 29.7692L44.87 29.1892C45.01 28.2992 45.18 27.4092 45.34 26.5092C48.65 25.9992 50.46 23.4493 51.38 20.4693C52.59 16.9493 51.85 13.6492 46.84 12.8892C35.48 11.2392 24.07 9.93926 12.61 8.96926C7.54001 8.56926 5.8 11.5892 5.87 15.2592C5.83 18.4492 6.85 21.4192 10.16 22.5792C10.11 23.0792 10.05 23.5693 10 24.0593C9.94001 24.6293 9.87001 25.1892 9.79001 25.7592C9.74001 26.1492 9.69 26.5393 9.63 26.9293C9.37 28.7893 9.06001 30.6393 8.71001 32.4893C8.59001 33.1593 8.45001 33.8193 8.31001 34.4793C8.23001 34.8693 8.14001 35.2492 8.06001 35.6392C7.54001 38.0292 6.95001 40.4092 6.31 42.7692C6.32 42.7692 6.34001 42.7693 6.35001 42.7793C6.34001 42.7793 6.32 42.7792 6.31 42.7692C5.77 44.7692 5.21001 46.7593 4.61001 48.7393C3.63001 51.9793 2.63 55.5093 4.27 58.6593C6.04 62.0493 10.07 63.7693 13.67 65.0493C14.65 65.3993 15.65 65.7193 16.65 66.0393C16.83 66.0993 17.02 66.1492 17.2 66.2092C17.72 66.3792 18.25 66.5392 18.77 66.6992C19.83 67.0292 20.89 67.3593 21.93 67.7193C22.39 67.8793 22.86 68.0493 23.31 68.2193C24.25 68.5793 25.18 68.9592 26.09 69.3892C27.91 70.2492 29.77 71.2293 31.65 72.2393C32.04 72.4393 32.42 72.6493 32.82 72.8693C35.85 74.4993 38.92 76.1692 42.02 77.5692M21.16 56.0893C21.16 56.0193 21.14 55.9592 21.13 55.8892C21.13 55.9592 21.15 56.0193 21.16 56.0893ZM21.18 57.9392C21.18 57.8592 21.18 57.7792 21.19 57.7092C21.19 57.7892 21.19 57.8692 21.18 57.9392ZM20.79 54.2493C20.79 54.2493 20.8 54.2992 20.81 54.3292C20.81 54.2992 20.8 54.2793 20.79 54.2493ZM20.13 52.5293C20.13 52.5293 20.15 52.5793 20.17 52.6093C20.16 52.5793 20.15 52.5593 20.13 52.5293ZM18.49 49.9392C18.49 49.9392 18.53 49.9892 18.55 50.0192C18.53 49.9892 18.51 49.9692 18.49 49.9392ZM17.86 49.1992C17.86 49.1992 17.95 49.2893 17.99 49.3393C18.01 49.3593 18.03 49.3893 18.05 49.4093C17.99 49.3393 17.93 49.2692 17.87 49.2092L17.86 49.1992ZM16.93 48.2493C16.93 48.2493 16.92 48.2393 16.91 48.2293L16.93 48.2493ZM7.93001 43.2193C7.93001 43.2193 7.85001 43.1992 7.81001 43.1892C7.85001 43.1992 7.89001 43.2093 7.93001 43.2193ZM9.47001 43.7393C9.47001 43.7393 9.38 43.7092 9.34 43.6892C9.38 43.7092 9.43001 43.7193 9.47001 43.7393ZM10.93 44.3393C10.93 44.3393 10.86 44.3093 10.82 44.2893C10.86 44.3093 10.89 44.3193 10.93 44.3393ZM12.29 44.9993C12.29 44.9993 12.25 44.9793 12.23 44.9693C12.25 44.9793 12.27 44.9893 12.29 44.9993Z" fill="white"/>
<path d="M61.6 60.4691C63.34 60.0191 65.07 59.7191 66.76 59.5391C69.54 61.8891 71.67 64.6291 71.93 67.8691C72.26 71.9991 69.74 75.5591 66.15 77.8491C58.47 82.7491 50.54 80.949 42.77 77.449C43.03 70.449 50.74 63.2391 61.6 60.4691Z" fill="#F5DDC5"/>
<path d="M17.4 65.9404C17.58 66.0004 17.77 66.0505 17.95 66.1105C18.47 66.2805 19 66.4305 19.52 66.6005C20.08 66.7805 20.65 66.9504 21.21 67.1404C21.7 67.3004 22.18 67.4505 22.67 67.6205C23.13 67.7805 23.6 67.9505 24.05 68.1205C24.99 68.4705 25.93 68.8605 26.83 69.2905C28.32 69.9905 29.83 70.7704 31.36 71.5804C31.7 71.7604 32.05 71.9504 32.39 72.1304C32.44 72.1504 32.49 72.1804 32.53 72.2004C32.87 72.3804 33.21 72.5705 33.56 72.7505C36.59 74.3805 39.66 76.0504 42.76 77.4404C43.02 70.4404 50.73 63.2405 61.59 60.4705C63.33 60.0205 65.06 59.7205 66.75 59.5405C65.56 58.5405 64.27 57.6105 62.95 56.7505C62.49 56.4505 62.03 56.1505 61.57 55.8705C61.34 55.7305 61.12 55.5905 60.9 55.4604C60.9 55.4604 60.9 55.4604 60.89 55.4604C60.72 55.3605 60.56 55.2605 60.4 55.1605C59.01 54.3205 57.67 53.5605 56.49 52.8405C55.99 52.5405 55.49 52.2104 55 51.8804C54.72 51.6904 54.46 51.5005 54.19 51.3005C54.05 51.2005 53.91 51.1005 53.77 50.9905C53.54 50.8205 53.32 50.6304 53.09 50.4504C53 50.3804 52.92 50.3105 52.83 50.2405C52.47 49.9405 52.12 49.6404 51.79 49.3304C50.89 48.5004 50.06 47.6105 49.31 46.6705C49.02 46.3105 48.74 45.9405 48.49 45.5605C48.26 45.2305 48.03 44.8905 47.82 44.5405C47.6 44.2005 47.4 43.8505 47.2 43.4905C46.66 42.4905 46.21 41.4405 45.85 40.3405C45.79 40.1505 45.73 39.9604 45.68 39.7704C45.56 39.3604 45.47 38.9605 45.39 38.5505C44.89 35.9905 45 33.4205 45.34 30.8405C45.39 30.4505 45.45 30.0605 45.51 29.6805L45.6 29.1005C45.75 28.1705 45.92 27.2405 46.09 26.3105C46.16 25.9305 47.02 20.7404 47.24 20.7004L10.37 16.4805C11.35 18.8705 11.01 21.4805 10.72 23.9805C10.66 24.5505 10.59 25.1205 10.51 25.6805C10.46 26.0705 10.41 26.4605 10.35 26.8505C10.09 28.7105 9.78 30.5605 9.43 32.4105C9.31 33.0705 9.17 33.7405 9.03 34.4005C8.95 34.7905 8.87 35.1705 8.78 35.5605C8.26 37.9505 7.67 40.3204 7.03 42.6904C11.35 43.7404 15.04 45.6905 17.66 48.1705C18.03 48.5205 18.39 48.8804 18.72 49.2604C19.1 49.7004 19.46 50.1505 19.78 50.6105C20.02 50.9505 20.24 51.2905 20.44 51.6505C21.69 53.8305 22.22 56.2305 21.83 58.6805C21.38 61.5005 19.77 64.0005 17.38 65.9705L17.4 65.9404Z" fill="#C90E17"/>
<path d="M5.02 58.5599C3.38 55.4099 4.38001 51.8799 5.36001 48.6399C5.96001 46.6599 6.52 44.6599 7.06 42.6699C16.54 44.9599 22.97 51.6299 21.86 58.6499C21.41 61.4699 19.81 63.9599 17.41 65.9399C16.41 65.6299 15.41 65.2999 14.43 64.9499C10.83 63.6699 6.79001 61.9499 5.03001 58.5599H5.02Z" fill="#F5DDC5"/>
<path d="M12.49 22.8596C22.97 24.3796 33.51 25.5896 44.09 26.4796C48.71 26.8396 51.04 23.8996 52.14 20.3696C53.35 16.8496 52.61 13.5496 47.6 12.7896C36.24 11.1396 24.83 9.83965 13.37 8.86965C8.30001 8.46965 6.56001 11.4896 6.63001 15.1596C6.59001 18.8096 7.92001 22.1696 12.49 22.8596Z" fill="#1A7A3D"/>
<path d="M38.23 55.3094C38.12 55.2294 38.03 55.1294 37.93 55.0294C37.85 54.9494 37.78 54.8694 37.71 54.7894C37.44 54.4994 37.18 54.1893 36.93 53.8793C36.81 53.7193 36.69 53.5594 36.57 53.3994C36.52 53.3294 36.47 53.2494 36.41 53.1794C36.36 53.1194 36.3 53.0494 36.28 52.9694C36.36 52.9394 36.44 53.0094 36.5 53.0394C36.59 53.0894 36.68 53.1294 36.77 53.1694C36.96 53.2594 37.16 53.3294 37.36 53.3994C37.75 53.5294 38.15 53.6394 38.55 53.7394C38.59 53.7494 38.68 53.7794 38.69 53.7194C38.69 53.6894 38.64 53.6394 38.63 53.6194C38.57 53.5494 38.5 53.4894 38.44 53.4194C38.34 53.2994 38.25 53.1893 38.15 53.0693C37.96 52.8393 37.78 52.6093 37.6 52.3793C37.22 51.8793 36.86 51.3693 36.55 50.8293C36.52 50.7693 36.48 50.7094 36.49 50.6494C36.51 50.5194 36.65 50.5493 36.74 50.5793C36.99 50.6593 37.25 50.7593 37.51 50.8193C37.7 50.8593 37.94 50.9393 38.14 50.9393C38.18 50.9393 38.23 50.9094 38.23 50.8694C38.23 50.8494 38.21 50.8294 38.2 50.8094C38.06 50.6394 37.94 50.4594 37.81 50.2794C37.67 50.0894 37.58 49.8794 37.46 49.6794C37.35 49.4994 37.23 49.3193 37.13 49.1393C37.06 48.9993 36.96 48.8493 36.93 48.6993C37.16 48.6293 37.47 48.8093 37.68 48.8793C37.75 48.8993 38.22 49.0794 38.26 48.9794C38.33 48.8494 37.75 48.4094 37.67 48.3094C37.51 48.0994 37.35 47.8894 37.21 47.6694C37.11 47.5094 36.96 47.3193 36.91 47.1293C37.09 47.0493 37.47 47.3594 37.65 47.4194C37.78 47.4694 37.91 47.5094 38.04 47.5394C38.13 47.5594 38.22 47.5894 38.31 47.5994C38.33 47.5994 38.37 47.6094 38.38 47.5994C38.4 47.5994 38.39 47.5794 38.38 47.5594C38.37 47.5194 38.35 47.4893 38.33 47.4493C38.25 47.3093 38.15 47.1894 38.07 47.0494C37.97 46.8694 37.88 46.6794 37.79 46.4794C37.69 46.2494 37.61 46.0093 37.55 45.7693C37.52 45.6493 37.49 45.5294 37.46 45.4094C37.45 45.3494 37.44 45.2994 37.42 45.2394C37.42 45.1994 37.41 45.1693 37.4 45.1293C37.4 45.1093 37.37 45.0594 37.38 45.0394C37.38 44.9994 37.36 44.9594 37.36 44.9194C37.36 44.8994 37.36 44.8594 37.34 44.8494C37.5 44.9194 37.64 45.0093 37.79 45.0793C38.02 45.1993 38.26 45.3193 38.5 45.4393C38.51 45.4393 38.52 45.4493 38.54 45.4493C38.63 45.4493 38.54 45.2893 38.52 45.2693C38.45 45.1093 38.37 44.9494 38.31 44.7794C38.25 44.6094 38.18 44.4393 38.12 44.2593C38 43.9193 37.87 43.5794 37.75 43.2494C37.75 43.2294 37.73 43.1493 37.7 43.1393C37.77 43.1493 37.81 43.1994 37.87 43.2294C37.93 43.2594 37.98 43.2993 38.04 43.3293C38.15 43.3993 38.25 43.4593 38.37 43.5093C38.43 43.5293 38.49 43.5593 38.55 43.5693C38.6 43.5693 38.58 43.5493 38.57 43.5193C38.53 43.4293 38.48 43.3493 38.43 43.2693C38.33 43.1093 38.23 42.9494 38.14 42.7894C38.07 42.6494 37.99 42.5193 37.91 42.3793C37.91 42.3793 37.91 42.3694 37.91 42.3594C37.88 42.2994 37.86 42.2394 37.83 42.1794C37.81 42.1494 37.79 42.1194 37.78 42.0894C37.77 42.0594 37.75 42.0293 37.72 42.0093C37.89 42.0793 38.06 42.1893 38.26 42.1893C38.44 42.1893 38.36 42.0493 38.32 41.9393C37.96 40.9993 37.79 39.9494 37.72 38.9594C37.71 38.7794 37.73 38.5194 37.67 38.3594C37.52 38.4694 37.38 38.6894 37.26 38.8394C36.59 39.6394 35.81 40.4294 34.94 41.0494C34.84 41.1194 34.69 41.1894 34.84 41.2794C35 41.3794 35.21 41.3693 35.4 41.3893C35.36 41.3893 35.34 41.4094 35.31 41.4294C35.28 41.4494 35.24 41.4694 35.21 41.4794C35.15 41.5194 35.09 41.5594 35.03 41.5894C35.03 41.5894 35.02 41.5894 35.01 41.5994C34.86 41.6694 34.71 41.7493 34.57 41.8293C34.4 41.9293 34.22 42.0094 34.04 42.0894C33.95 42.1294 33.86 42.1794 33.77 42.2294C33.74 42.2494 33.71 42.2594 33.76 42.2794C33.82 42.3094 33.89 42.3093 33.95 42.3193C34.08 42.3393 34.21 42.3293 34.34 42.3293C34.41 42.3293 34.48 42.3293 34.55 42.3293C34.62 42.3293 34.68 42.3093 34.75 42.3293C34.73 42.3293 34.66 42.3894 34.65 42.3994C34.34 42.6194 34.03 42.8393 33.72 43.0693C33.56 43.1793 33.4 43.2994 33.25 43.4094C33.1 43.5194 32.94 43.6094 32.78 43.7194C32.75 43.7394 32.57 43.8294 32.65 43.8594C32.66 43.8594 32.68 43.8594 32.69 43.8594C32.96 43.8794 33.23 43.8894 33.5 43.9094C33.67 43.9094 33.85 43.9093 34.02 43.9393C33.99 43.9393 33.98 43.9694 33.96 43.9894C33.93 44.0194 33.9 44.0493 33.87 44.0793C33.87 44.0993 33.82 44.1294 33.8 44.1494C33.77 44.1794 33.74 44.1994 33.72 44.2294C33.68 44.2694 33.63 44.3094 33.59 44.3594C33.49 44.4494 33.4 44.5394 33.3 44.6194C33.1 44.7894 32.89 44.9494 32.67 45.0894C32.48 45.2094 32.29 45.3294 32.09 45.4294C31.94 45.5094 31.78 45.5593 31.63 45.6393C31.59 45.6593 31.56 45.6793 31.52 45.6993C31.5 45.7193 31.48 45.7194 31.5 45.7394C31.5 45.7494 31.55 45.7593 31.56 45.7693C31.64 45.8093 31.73 45.8294 31.82 45.8494C31.95 45.8894 32.09 45.9193 32.23 45.9393C32.41 45.9693 32.92 45.8994 33.02 46.0494C32.87 46.1794 32.63 46.2694 32.44 46.3594C32.19 46.4794 31.93 46.5694 31.67 46.6694C31.54 46.7194 30.79 46.7993 30.76 46.9493C30.74 47.0493 31.24 47.1294 31.31 47.1494C31.53 47.1994 31.9 47.1994 32.05 47.3694C31.94 47.4894 31.76 47.5693 31.61 47.6393C31.41 47.7493 31.2 47.8394 31 47.9294C30.78 48.0394 30.57 48.1693 30.34 48.2593C30.12 48.3493 29.91 48.4393 29.69 48.5193C29.67 48.5193 29.64 48.5394 29.63 48.5594C29.6 48.5894 29.63 48.6394 29.66 48.6694C29.82 48.7594 30.08 48.8194 30.26 48.8694C30.52 48.9494 30.79 48.9894 31.05 49.0494C31.14 49.0694 31.28 49.1094 31.22 49.2294C31.19 49.2894 31.12 49.3294 31.06 49.3594C30.47 49.6594 29.86 49.9093 29.24 50.1393C28.95 50.2493 28.65 50.3493 28.36 50.4493C28.21 50.4993 28.06 50.5494 27.9 50.5994C27.81 50.6294 27.71 50.6394 27.62 50.6694C27.59 50.6794 27.52 50.6994 27.5 50.7294C27.48 50.7794 27.57 50.7994 27.61 50.8094C28.01 50.9094 28.41 51.0194 28.82 51.0994C29.03 51.1394 29.24 51.1693 29.45 51.1993C29.55 51.2093 29.66 51.2194 29.76 51.2194C29.84 51.2194 29.94 51.1993 29.99 51.2693C29.92 51.3293 29.84 51.3493 29.75 51.3793C29.66 51.4093 29.57 51.4494 29.48 51.4894C29.29 51.5694 29.09 51.6494 28.89 51.7194C28.49 51.8594 28.09 51.9894 27.69 52.1094C27.58 52.1394 27.47 52.1693 27.36 52.1993C27.22 52.2393 27.08 52.2694 26.94 52.2894C26.79 52.3094 26.61 52.3093 26.49 52.3893C26.59 52.4493 26.7 52.4594 26.82 52.4794C26.97 52.5094 27.13 52.5394 27.28 52.5594C27.57 52.5994 27.87 52.6293 28.16 52.6393C28.37 52.6393 28.58 52.6493 28.8 52.6393C28.85 52.6393 28.91 52.6393 28.96 52.6393C29 52.6393 29.09 52.6093 29.13 52.6393C29.16 52.6793 29.13 52.7494 29.11 52.7794C29.08 52.8694 29.04 52.9594 29.01 53.0594C28.99 53.1094 28.92 53.2394 29.02 53.2494C29.04 53.2494 29.06 53.2494 29.08 53.2494C29.27 53.2094 29.47 53.1894 29.66 53.1494C29.9 53.1094 30.13 53.0494 30.37 52.9894C30.52 52.9494 30.67 52.8993 30.81 52.8293C30.86 52.8093 31.02 52.6593 31.05 52.7693C31.05 52.7793 31.05 52.7993 31.05 52.8193C31.03 52.9493 31.01 53.0794 30.98 53.2094C30.96 53.2894 30.94 53.3693 30.91 53.4493C30.9 53.4893 30.88 53.5194 30.87 53.5594C30.86 53.5894 30.84 53.6093 30.83 53.6393C30.83 53.6893 30.89 53.6594 30.92 53.6594C31.05 53.6294 31.18 53.5794 31.3 53.5294C31.54 53.4294 31.75 53.3593 31.94 53.1893L30.71 56.9094L31.47 57.1094C31.47 57.1094 31.47 57.1094 31.47 57.0994V57.1094C31.47 57.1094 31.47 57.1094 31.47 57.1194L32.23 57.3193L33.46 53.5994C33.52 53.8394 33.65 53.9993 33.79 54.1993C33.86 54.2993 33.94 54.3994 34.03 54.4894C34.05 54.5094 34.09 54.5693 34.12 54.5193C34.13 54.4893 34.12 54.4594 34.14 54.4294C34.14 54.3894 34.16 54.3493 34.17 54.3193C34.2 54.2393 34.23 54.1593 34.26 54.0793C34.32 53.9593 34.37 53.8394 34.44 53.7194C34.44 53.7094 34.46 53.6894 34.47 53.6794C34.56 53.6094 34.61 53.8094 34.63 53.8494C34.71 53.9694 34.8 54.0893 34.9 54.1993C35.06 54.3693 35.22 54.5194 35.4 54.6794C35.54 54.7994 35.68 54.9194 35.82 55.0494C35.83 55.0594 35.85 55.0793 35.87 55.0793C35.96 55.1193 35.98 54.9794 36 54.9194C36.03 54.8294 36.05 54.7293 36.09 54.6393C36.1 54.5993 36.12 54.5293 36.16 54.5093C36.21 54.4893 36.26 54.5594 36.3 54.5894C36.34 54.6194 36.39 54.6394 36.43 54.6694C36.61 54.7794 36.78 54.8794 36.97 54.9694C37.23 55.0994 37.49 55.2193 37.76 55.3293C37.9 55.3893 38.05 55.4394 38.19 55.4894C38.3 55.5294 38.4 55.5793 38.52 55.5693C38.46 55.4393 38.31 55.3493 38.2 55.2593L38.23 55.3094Z" fill="#1A7A3D"/>
<path d="M26.95 52.3301C27.09 52.3201 27.23 52.2802 27.37 52.2402C27.48 52.2102 27.59 52.1801 27.7 52.1501C28.11 52.0401 28.51 51.9101 28.9 51.7601C29.1 51.6901 29.29 51.6102 29.49 51.5302C29.58 51.4902 29.67 51.4502 29.76 51.4202C29.85 51.3902 29.93 51.3702 30 51.3102C29.95 51.2502 29.84 51.2601 29.77 51.2601C29.67 51.2601 29.56 51.2502 29.46 51.2402C29.25 51.2202 29.04 51.1801 28.83 51.1401C28.42 51.0601 28.02 50.9502 27.62 50.8502C27.58 50.8402 27.49 50.8201 27.51 50.7701C27.52 50.7401 27.6 50.7301 27.63 50.7101C27.72 50.6801 27.82 50.6701 27.91 50.6401C28.06 50.5901 28.21 50.5402 28.37 50.4902C28.67 50.3902 28.96 50.2902 29.25 50.1802C29.87 49.9502 30.48 49.7001 31.07 49.4001C31.13 49.3701 31.2 49.3301 31.23 49.2701C31.29 49.1501 31.16 49.1101 31.06 49.0901C30.8 49.0301 30.52 48.9902 30.27 48.9102C30.08 48.8502 29.83 48.8001 29.67 48.7101C29.63 48.6901 29.61 48.6402 29.64 48.6002C29.65 48.5802 29.68 48.5702 29.7 48.5602C29.92 48.4802 30.14 48.3902 30.35 48.3002C30.58 48.2102 30.79 48.0802 31.01 47.9702C31.21 47.8702 31.42 47.7802 31.62 47.6802C31.76 47.6002 31.94 47.5202 32.06 47.4102C31.91 47.2402 31.54 47.2401 31.32 47.2001C31.25 47.1901 30.75 47.1002 30.77 47.0002C30.79 46.8602 31.54 46.7702 31.68 46.7202C31.94 46.6202 32.2 46.5202 32.45 46.4102C32.63 46.3302 32.88 46.2402 33.03 46.1002C32.92 45.9502 32.42 46.0202 32.24 45.9902C32.1 45.9702 31.97 45.9401 31.83 45.9001C31.74 45.8801 31.65 45.8501 31.57 45.8201C31.56 45.8201 31.52 45.8002 31.51 45.7902C31.5 45.7702 31.51 45.7702 31.53 45.7502C31.56 45.7302 31.6 45.7001 31.64 45.6901C31.79 45.6101 31.95 45.5602 32.1 45.4802C32.3 45.3802 32.49 45.2601 32.68 45.1401C32.9 44.9901 33.11 44.8402 33.31 44.6702C33.41 44.5902 33.51 44.5002 33.6 44.4102C33.64 44.3702 33.69 44.3302 33.73 44.2802C33.76 44.2502 33.79 44.2301 33.81 44.2001C33.83 44.1801 33.87 44.1501 33.88 44.1301C33.91 44.1001 33.94 44.0702 33.97 44.0402C33.98 44.0202 34 43.9902 34.03 43.9902C33.86 43.9702 33.68 43.9701 33.51 43.9601C33.24 43.9501 32.97 43.9302 32.7 43.9102C32.69 43.9102 32.67 43.9102 32.66 43.9102C32.58 43.8802 32.76 43.7801 32.79 43.7701C32.95 43.6701 33.11 43.5701 33.26 43.4601C33.42 43.3501 33.58 43.2302 33.73 43.1202C34.04 42.9002 34.35 42.6701 34.66 42.4501C34.68 42.4401 34.74 42.3801 34.76 42.3801C34.7 42.3601 34.63 42.3801 34.56 42.3801C34.49 42.3801 34.42 42.3801 34.35 42.3801C34.22 42.3801 34.09 42.3802 33.96 42.3702C33.9 42.3702 33.83 42.3501 33.77 42.3301C33.73 42.3101 33.76 42.3002 33.78 42.2802C33.87 42.2302 33.96 42.1801 34.05 42.1401C34.23 42.0501 34.41 41.9701 34.58 41.8801C34.72 41.8001 34.87 41.7301 35.02 41.6501C35.02 41.6501 35.03 41.6501 35.04 41.6401C35.1 41.6001 35.16 41.5702 35.22 41.5302C35.25 41.5102 35.29 41.4902 35.32 41.4802C35.35 41.4602 35.38 41.4501 35.41 41.4401C35.22 41.4201 35.01 41.4301 34.85 41.3301C34.7 41.2401 34.85 41.1702 34.95 41.1002C35.82 40.4802 36.6 39.6901 37.27 38.8901C37.39 38.7501 37.53 38.5202 37.68 38.4102L31.48 57.1501C31.48 57.1501 31.48 57.1501 31.48 57.1401C31.48 57.1401 31.48 57.1401 31.48 57.1501L30.72 56.9501L31.95 53.2302C31.76 53.4002 31.55 53.4701 31.31 53.5701C31.19 53.6201 31.06 53.6701 30.93 53.7001C30.9 53.7001 30.83 53.7302 30.84 53.6802C30.84 53.6502 30.87 53.6302 30.88 53.6002C30.9 53.5602 30.91 53.5302 30.92 53.4902C30.95 53.4102 30.97 53.3202 30.99 53.2502C31.02 53.1202 31.04 52.9902 31.06 52.8602C31.06 52.8402 31.06 52.8302 31.06 52.8102C31.03 52.7002 30.86 52.8502 30.82 52.8702C30.68 52.9402 30.53 52.9902 30.38 53.0302C30.15 53.0902 29.91 53.1401 29.67 53.1901C29.48 53.2301 29.28 53.2502 29.09 53.2902C29.07 53.2902 29.05 53.2902 29.03 53.2902C28.93 53.2802 29 53.1502 29.02 53.1002C29.05 53.0102 29.09 52.9201 29.11 52.8201C29.12 52.7801 29.16 52.7102 29.13 52.6802C29.1 52.6402 29.01 52.6802 28.96 52.6802C28.91 52.6802 28.85 52.6802 28.8 52.6802C28.59 52.6802 28.38 52.6802 28.16 52.6802C27.86 52.6702 27.57 52.6402 27.28 52.6002C27.13 52.5802 26.97 52.5501 26.82 52.5201C26.71 52.5001 26.59 52.4902 26.49 52.4302C26.62 52.3502 26.8 52.3401 26.94 52.3301H26.95Z" fill="#1A7A3D"/>
<path d="M38.25 55.3484C38.14 55.2684 38.05 55.1684 37.95 55.0684C37.87 54.9884 37.8 54.9084 37.73 54.8284C37.46 54.5384 37.2 54.2285 36.95 53.9185C36.83 53.7585 36.71 53.5984 36.59 53.4384C36.54 53.3684 36.49 53.2884 36.43 53.2184C36.38 53.1584 36.32 53.0884 36.3 53.0084C36.38 52.9784 36.46 53.0484 36.52 53.0784C36.61 53.1284 36.7 53.1684 36.8 53.2084C36.99 53.2884 37.19 53.3684 37.39 53.4384C37.78 53.5684 38.18 53.6784 38.58 53.7784C38.62 53.7884 38.71 53.8184 38.72 53.7584C38.72 53.7284 38.68 53.6784 38.66 53.6584C38.6 53.5884 38.53 53.5284 38.47 53.4584C38.37 53.3384 38.28 53.2285 38.18 53.1085C37.99 52.8785 37.81 52.6485 37.63 52.4185C37.25 51.9185 36.89 51.4085 36.58 50.8685C36.55 50.8085 36.51 50.7484 36.52 50.6884C36.54 50.5584 36.68 50.5885 36.77 50.6185C37.02 50.6985 37.28 50.7985 37.54 50.8585C37.73 50.8985 37.97 50.9785 38.17 50.9785C38.21 50.9785 38.26 50.9484 38.26 50.9084C38.26 50.8884 38.24 50.8685 38.23 50.8484C38.09 50.6784 37.97 50.4984 37.84 50.3184C37.7 50.1284 37.61 49.9184 37.49 49.7184C37.38 49.5384 37.26 49.3585 37.16 49.1785C37.09 49.0385 36.99 48.8885 36.96 48.7385C37.19 48.6685 37.5 48.8485 37.71 48.9185C37.78 48.9385 38.25 49.1184 38.29 49.0184C38.36 48.8884 37.78 48.4485 37.7 48.3484C37.54 48.1384 37.38 47.9284 37.24 47.7084C37.14 47.5484 36.99 47.3585 36.94 47.1685C37.12 47.0885 37.5 47.3984 37.68 47.4584C37.81 47.5084 37.94 47.5484 38.07 47.5784C38.16 47.5984 38.25 47.6284 38.34 47.6384C38.36 47.6384 38.4 47.6484 38.41 47.6384C38.43 47.6384 38.42 47.6185 38.41 47.5984C38.4 47.5584 38.38 47.5285 38.36 47.4885C38.28 47.3485 38.18 47.2284 38.1 47.0884C38 46.9084 37.91 46.7184 37.82 46.5184C37.72 46.2884 37.64 46.0485 37.58 45.8085C37.55 45.6885 37.52 45.5684 37.49 45.4484C37.48 45.3884 37.47 45.3384 37.45 45.2784C37.45 45.2384 37.44 45.2085 37.43 45.1685C37.43 45.1485 37.4 45.0984 37.41 45.0784C37.41 45.0384 37.39 44.9984 37.39 44.9584C37.39 44.9384 37.39 44.8984 37.37 44.8884C37.53 44.9584 37.67 45.0485 37.82 45.1185C38.05 45.2385 38.29 45.3585 38.53 45.4785C38.54 45.4785 38.55 45.4885 38.57 45.4885C38.66 45.4885 38.57 45.3285 38.55 45.3085C38.48 45.1485 38.4 44.9884 38.34 44.8184C38.28 44.6484 38.21 44.4785 38.15 44.2985C38.03 43.9585 37.9 43.6185 37.78 43.2885C37.78 43.2685 37.76 43.1885 37.73 43.1785C37.8 43.1885 37.84 43.2384 37.9 43.2684C37.96 43.2984 38.01 43.3385 38.07 43.3685C38.18 43.4385 38.28 43.4985 38.4 43.5485C38.46 43.5685 38.52 43.5985 38.58 43.6085C38.63 43.6085 38.61 43.5885 38.6 43.5585C38.56 43.4685 38.51 43.3885 38.46 43.3085C38.36 43.1485 38.26 42.9884 38.17 42.8284C38.1 42.6884 38.02 42.5585 37.94 42.4185C37.94 42.4185 37.94 42.4084 37.94 42.3984C37.91 42.3384 37.89 42.2784 37.86 42.2184C37.84 42.1884 37.82 42.1584 37.81 42.1284C37.8 42.0984 37.78 42.0685 37.75 42.0485C37.92 42.1185 38.09 42.2285 38.29 42.2285C38.47 42.2285 38.39 42.0885 38.35 41.9785C37.99 41.0385 37.82 39.9885 37.75 38.9985C37.74 38.8185 37.76 38.5584 37.7 38.3984C37.55 38.5084 37.41 38.7284 37.29 38.8784C36.62 39.6784 35.84 40.4684 34.97 41.0884C34.87 41.1584 34.72 41.2284 34.87 41.3184C35.03 41.4184 35.24 41.4085 35.43 41.4285C35.39 41.4285 35.37 41.4484 35.34 41.4684C35.31 41.4884 35.27 41.5084 35.24 41.5184C35.18 41.5584 35.12 41.5984 35.06 41.6284C35.06 41.6284 35.05 41.6284 35.04 41.6384C34.89 41.7184 34.74 41.7885 34.6 41.8685C34.43 41.9685 34.25 42.0484 34.07 42.1284C33.98 42.1684 33.89 42.2184 33.8 42.2684C33.77 42.2884 33.74 42.2984 33.79 42.3184C33.85 42.3484 33.92 42.3485 33.98 42.3585C34.11 42.3785 34.24 42.3685 34.37 42.3685C34.44 42.3685 34.51 42.3685 34.58 42.3685C34.65 42.3685 34.71 42.3485 34.78 42.3685C34.76 42.3685 34.69 42.4284 34.68 42.4384C34.37 42.6584 34.06 42.8785 33.75 43.1085C33.59 43.2185 33.43 43.3384 33.28 43.4484C33.13 43.5584 32.97 43.6484 32.81 43.7584C32.78 43.7784 32.6 43.8684 32.68 43.8984C32.69 43.8984 32.71 43.8984 32.72 43.8984C32.99 43.9184 33.26 43.9284 33.53 43.9484C33.7 43.9484 33.88 43.9485 34.05 43.9785C34.02 43.9785 34.01 44.0084 33.99 44.0284C33.96 44.0584 33.93 44.0885 33.9 44.1185C33.9 44.1385 33.85 44.1684 33.83 44.1884C33.8 44.2184 33.77 44.2384 33.75 44.2684C33.71 44.3084 33.66 44.3484 33.62 44.3984C33.52 44.4884 33.43 44.5784 33.33 44.6584C33.13 44.8284 32.92 44.9884 32.7 45.1284C32.51 45.2484 32.32 45.3684 32.12 45.4684C31.97 45.5484 31.81 45.5985 31.66 45.6785C31.62 45.6985 31.59 45.7185 31.55 45.7385C31.53 45.7585 31.51 45.7584 31.53 45.7784C31.53 45.7884 31.58 45.7985 31.59 45.8085C31.67 45.8485 31.76 45.8684 31.85 45.8884C31.98 45.9284 32.12 45.9585 32.26 45.9785C32.44 46.0085 32.95 45.9384 33.05 46.0884C32.9 46.2184 32.66 46.3084 32.47 46.3984C32.22 46.5184 31.96 46.6084 31.7 46.7084C31.57 46.7584 30.82 46.8385 30.79 46.9885C30.77 47.0885 31.27 47.1684 31.34 47.1884C31.56 47.2384 31.93 47.2384 32.08 47.3984C31.97 47.5184 31.79 47.5985 31.64 47.6685C31.44 47.7785 31.23 47.8684 31.03 47.9584C30.81 48.0684 30.6 48.1985 30.37 48.2885C30.15 48.3785 29.94 48.4685 29.72 48.5485C29.7 48.5485 29.67 48.5684 29.66 48.5884C29.63 48.6184 29.66 48.6684 29.69 48.6984C29.85 48.7884 30.11 48.8484 30.29 48.8984C30.55 48.9784 30.82 49.0184 31.08 49.0784C31.17 49.0984 31.31 49.1284 31.25 49.2584C31.22 49.3184 31.15 49.3484 31.09 49.3884C30.5 49.6884 29.89 49.9385 29.27 50.1685C28.98 50.2785 28.68 50.3785 28.39 50.4785C28.24 50.5285 28.09 50.5784 27.93 50.6284C27.84 50.6584 27.74 50.6684 27.65 50.6984C27.62 50.7084 27.55 50.7284 27.53 50.7584C27.51 50.8084 27.6 50.8284 27.64 50.8384C28.04 50.9384 28.44 51.0484 28.85 51.1284C29.06 51.1684 29.27 51.1985 29.48 51.2285C29.58 51.2385 29.69 51.2485 29.79 51.2485C29.87 51.2485 29.97 51.2285 30.02 51.2985C29.95 51.3585 29.87 51.3784 29.78 51.4084C29.69 51.4384 29.6 51.4784 29.51 51.5184C29.32 51.5984 29.12 51.6785 28.92 51.7485C28.52 51.8885 28.12 52.0184 27.72 52.1384C27.61 52.1684 27.5 52.1985 27.39 52.2285C27.25 52.2685 27.11 52.2984 26.97 52.3184C26.82 52.3384 26.64 52.3385 26.52 52.4185C26.62 52.4785 26.73 52.4884 26.85 52.5084C27 52.5384 27.16 52.5684 27.31 52.5884C27.6 52.6284 27.9 52.6585 28.19 52.6685C28.4 52.6685 28.61 52.6785 28.83 52.6685C28.88 52.6685 28.94 52.6685 28.99 52.6685C29.03 52.6685 29.12 52.6385 29.16 52.6685C29.19 52.7085 29.16 52.7785 29.14 52.8085C29.11 52.8985 29.07 52.9884 29.04 53.0884C29.02 53.1384 28.95 53.2684 29.05 53.2784C29.07 53.2784 29.09 53.2784 29.11 53.2784C29.3 53.2384 29.5 53.2185 29.69 53.1785C29.93 53.1385 30.16 53.0784 30.4 53.0184C30.55 52.9784 30.7 52.9285 30.84 52.8585C30.89 52.8385 31.05 52.6885 31.08 52.7985C31.08 52.8085 31.08 52.8284 31.08 52.8484C31.06 52.9784 31.04 53.1085 31.01 53.2385C30.99 53.3185 30.97 53.3985 30.94 53.4785C30.93 53.5185 30.91 53.5484 30.9 53.5884C30.89 53.6184 30.87 53.6385 30.86 53.6685C30.86 53.7185 30.92 53.6884 30.95 53.6884C31.08 53.6584 31.21 53.6085 31.33 53.5585C31.57 53.4585 31.78 53.3884 31.97 53.2184L30.74 56.9384L31.5 57.1384C31.5 57.1384 31.5 57.1384 31.5 57.1284V57.1384C31.5 57.1384 31.5 57.1384 31.5 57.1484L32.26 57.3484L33.49 53.6284C33.55 53.8684 33.68 54.0285 33.82 54.2285C33.89 54.3285 33.97 54.4284 34.06 54.5184C34.08 54.5384 34.12 54.5985 34.15 54.5485C34.16 54.5185 34.15 54.4884 34.17 54.4584C34.17 54.4184 34.19 54.3784 34.2 54.3484C34.23 54.2684 34.26 54.1885 34.29 54.1085C34.35 53.9885 34.4 53.8685 34.47 53.7485C34.47 53.7385 34.49 53.7184 34.5 53.7084C34.59 53.6384 34.64 53.8384 34.66 53.8784C34.74 53.9984 34.83 54.1185 34.93 54.2285C35.09 54.3985 35.25 54.5484 35.43 54.7084C35.57 54.8284 35.71 54.9484 35.85 55.0784C35.86 55.0884 35.88 55.1085 35.9 55.1085C35.99 55.1485 36.01 55.0084 36.03 54.9484C36.06 54.8584 36.08 54.7585 36.12 54.6685C36.13 54.6285 36.15 54.5585 36.19 54.5385C36.24 54.5185 36.3 54.5885 36.33 54.6185C36.37 54.6485 36.42 54.6684 36.46 54.6984C36.64 54.8084 36.81 54.9085 37 54.9985C37.26 55.1285 37.52 55.2485 37.79 55.3585C37.93 55.4185 38.08 55.4684 38.22 55.5184C38.33 55.5584 38.43 55.6084 38.55 55.5984C38.49 55.4685 38.34 55.3785 38.23 55.2885L38.25 55.3484Z" fill="#1A7A3D"/>
<path d="M26.98 52.3676C27.12 52.3576 27.26 52.3175 27.4 52.2775C27.51 52.2475 27.62 52.2175 27.73 52.1875C28.14 52.0775 28.54 51.9475 28.93 51.7975C29.13 51.7275 29.32 51.6475 29.52 51.5675C29.61 51.5275 29.7 51.4875 29.79 51.4575C29.88 51.4275 29.96 51.4075 30.03 51.3475C29.98 51.2875 29.87 51.2975 29.8 51.2975C29.7 51.2975 29.59 51.2875 29.49 51.2775C29.28 51.2575 29.07 51.2176 28.86 51.1776C28.45 51.0976 28.05 50.9875 27.65 50.8875C27.61 50.8875 27.52 50.8576 27.54 50.8076C27.55 50.7776 27.63 50.7576 27.66 50.7476C27.75 50.7176 27.85 50.7076 27.94 50.6776C28.09 50.6276 28.24 50.5775 28.4 50.5275C28.7 50.4275 28.99 50.3275 29.28 50.2175C29.9 49.9875 30.51 49.7375 31.1 49.4375C31.16 49.4075 31.23 49.3676 31.26 49.3076C31.32 49.1876 31.19 49.1475 31.09 49.1275C30.83 49.0675 30.55 49.0275 30.3 48.9475C30.11 48.8875 29.86 48.8376 29.7 48.7476C29.66 48.7276 29.64 48.6775 29.67 48.6375C29.68 48.6175 29.71 48.6075 29.73 48.5975C29.95 48.5175 30.17 48.4275 30.38 48.3375C30.61 48.2475 30.82 48.1175 31.04 48.0075C31.24 47.9075 31.45 47.8175 31.65 47.7175C31.79 47.6375 31.97 47.5575 32.09 47.4475C31.94 47.2775 31.57 47.2775 31.35 47.2275C31.28 47.2175 30.78 47.1275 30.8 47.0275C30.82 46.8875 31.57 46.7976 31.71 46.7476C31.97 46.6476 32.23 46.5475 32.48 46.4375C32.66 46.3575 32.91 46.2675 33.06 46.1275C32.95 45.9775 32.45 46.0475 32.27 46.0175C32.13 45.9975 32 45.9676 31.86 45.9276C31.77 45.9076 31.68 45.8775 31.6 45.8475C31.59 45.8475 31.55 45.8275 31.54 45.8175C31.53 45.7975 31.54 45.7975 31.56 45.7775C31.59 45.7575 31.63 45.7375 31.67 45.7175C31.82 45.6375 31.98 45.5875 32.13 45.5075C32.33 45.4075 32.52 45.2875 32.71 45.1675C32.93 45.0175 33.14 44.8675 33.34 44.6975C33.44 44.6175 33.54 44.5275 33.63 44.4375C33.67 44.3975 33.72 44.3576 33.76 44.3076C33.79 44.2776 33.82 44.2575 33.84 44.2275C33.86 44.2075 33.9 44.1775 33.91 44.1575C33.94 44.1275 33.97 44.0975 34 44.0675C34.01 44.0475 34.03 44.0175 34.06 44.0175C33.89 43.9975 33.71 43.9975 33.54 43.9875C33.27 43.9775 33 43.9575 32.73 43.9375C32.72 43.9375 32.7 43.9375 32.69 43.9375C32.61 43.8975 32.79 43.8075 32.82 43.7975C32.98 43.6975 33.14 43.5975 33.29 43.4875C33.45 43.3775 33.61 43.2575 33.76 43.1475C34.07 42.9275 34.38 42.6975 34.69 42.4775C34.71 42.4675 34.77 42.4075 34.79 42.4075C34.73 42.3875 34.66 42.4075 34.59 42.4075C34.52 42.4075 34.45 42.4075 34.38 42.4075C34.25 42.4075 34.12 42.4075 33.99 42.3975C33.93 42.3975 33.86 42.3775 33.8 42.3575C33.76 42.3375 33.79 42.3276 33.81 42.3076C33.9 42.2576 33.99 42.2075 34.08 42.1675C34.26 42.0775 34.44 41.9975 34.61 41.9075C34.75 41.8275 34.9 41.7576 35.05 41.6776C35.05 41.6776 35.06 41.6775 35.07 41.6675C35.13 41.6275 35.19 41.5976 35.25 41.5576C35.28 41.5376 35.32 41.5275 35.35 41.5075C35.38 41.4875 35.41 41.4775 35.44 41.4675C35.25 41.4475 35.04 41.4575 34.88 41.3575C34.73 41.2675 34.88 41.1975 34.98 41.1275C35.85 40.5075 36.63 39.7175 37.3 38.9175C37.42 38.7775 37.56 38.5475 37.71 38.4375L31.51 57.1776C31.51 57.1776 31.51 57.1775 31.51 57.1675C31.51 57.1675 31.51 57.1676 31.51 57.1776L30.75 56.9775L31.98 53.2575C31.79 53.4275 31.58 53.5075 31.34 53.5975C31.22 53.6475 31.09 53.6975 30.96 53.7275C30.93 53.7275 30.86 53.7575 30.87 53.7075C30.87 53.6775 30.9 53.6575 30.91 53.6275C30.93 53.5875 30.94 53.5575 30.95 53.5175C30.98 53.4375 31 53.3475 31.02 53.2775C31.05 53.1475 31.07 53.0175 31.09 52.8875C31.09 52.8675 31.09 52.8575 31.09 52.8375C31.06 52.7275 30.89 52.8775 30.85 52.8975C30.71 52.9675 30.56 53.0176 30.41 53.0576C30.18 53.1176 29.94 53.1675 29.7 53.2175C29.51 53.2575 29.31 53.2875 29.12 53.3175C29.1 53.3175 29.08 53.3175 29.06 53.3175C28.96 53.3075 29.03 53.1775 29.05 53.1275C29.08 53.0375 29.12 52.9475 29.15 52.8475C29.16 52.8075 29.2 52.7375 29.17 52.7075C29.14 52.6675 29.05 52.7075 29 52.7075C28.95 52.7075 28.89 52.7075 28.84 52.7075C28.63 52.7075 28.42 52.7075 28.21 52.7075C27.91 52.6975 27.62 52.6675 27.33 52.6275C27.18 52.6075 27.02 52.5775 26.87 52.5475C26.76 52.5275 26.64 52.5175 26.54 52.4575C26.67 52.3775 26.85 52.3675 26.99 52.3575L26.98 52.3676Z" fill="#1A7A3D"/>
<path d="M56.8228 57.1337C57.494 57.0291 57.9595 56.4399 57.8625 55.8178C57.7656 55.1957 57.1428 54.7762 56.4716 54.8809C55.8004 54.9855 55.3349 55.5746 55.4319 56.1967C55.5289 56.8188 56.1516 57.2383 56.8228 57.1337Z" fill="white"/>
<path d="M16.29 27.0391C16.18 27.7891 15.44 28.3291 14.64 28.2491C13.84 28.1691 13.27 27.4991 13.38 26.7491C13.49 25.9991 14.23 25.4591 15.03 25.5391C15.83 25.6191 16.4 26.2891 16.29 27.0391Z" fill="white"/>
<path d="M22.84 27.6993C22.73 28.4493 21.99 28.9893 21.19 28.9093C20.38 28.8293 19.82 28.1593 19.93 27.4093C20.04 26.6593 20.78 26.1193 21.58 26.1993C22.39 26.2793 22.95 26.9493 22.84 27.6993Z" fill="white"/>
<path d="M29.4 28.3594C29.29 29.1094 28.55 29.6494 27.75 29.5694C26.94 29.4894 26.38 28.8194 26.49 28.0694C26.6 27.3194 27.34 26.7794 28.14 26.8594C28.95 26.9394 29.51 27.6094 29.4 28.3594Z" fill="white"/>
<path d="M35.96 29.0293C35.85 29.7793 35.11 30.3194 34.31 30.2394C33.51 30.1594 32.94 29.4894 33.05 28.7394C33.16 27.9894 33.9 27.4493 34.7 27.5293C35.5 27.6093 36.07 28.2793 35.96 29.0293Z" fill="white"/>
<path d="M42.52 29.6895C42.41 30.4395 41.67 30.9795 40.87 30.8995C40.07 30.8195 39.5 30.1495 39.61 29.3995C39.72 28.6495 40.46 28.1095 41.26 28.1895C42.06 28.2695 42.63 28.9395 42.52 29.6895Z" fill="white"/>
<path d="M51.531 59.1161C52.2022 59.0114 52.6677 58.4223 52.5707 57.8002C52.4738 57.1781 51.851 56.7587 51.1798 56.8633C50.5086 56.9679 50.0431 57.557 50.1401 58.1791C50.2371 58.8012 50.8598 59.2207 51.531 59.1161Z" fill="white"/>
<path d="M47.46 61.4804C47.56 62.1004 47.09 62.6904 46.42 62.7904C45.75 62.8904 45.12 62.4804 45.03 61.8504C44.94 61.2204 45.4 60.6404 46.07 60.5404C46.74 60.4404 47.37 60.8504 47.46 61.4804Z" fill="white"/>
<path d="M42.6 66.2792C42.7 66.8992 42.23 67.4892 41.56 67.5892C40.89 67.6892 40.26 67.2792 40.17 66.6492C40.08 66.0192 40.54 65.4392 41.21 65.3392C41.88 65.2392 42.51 65.6492 42.6 66.2792Z" fill="white"/>
<path d="M37.9742 72.1786C38.6454 72.0739 39.1109 71.4848 39.0139 70.8627C38.917 70.2406 38.2943 69.8212 37.623 69.9258C36.9518 70.0304 36.4863 70.6195 36.5833 71.2416C36.6803 71.8637 37.303 72.2832 37.9742 72.1786Z" fill="white"/>
</svg>
