<svg width="79" height="72" viewBox="0 0 79 72" fill="none" xmlns="http://www.w3.org/2000/svg">
<path d="M35.15 71.7296L0 61.8995L4.82 21.2695L39.97 31.0995L35.15 71.7296Z" fill="url(#paint0_linear_2240_4)"/>
<path d="M71.76 69.1788L35.15 71.7288L39.97 31.0988L76.58 28.5488L71.76 69.1788Z" fill="url(#paint1_linear_2240_4)"/>
<g style="mix-blend-mode:multiply">
<path d="M4.72999 22.0586L3.79999 29.8686L38.95 39.6985L75.56 37.1486L76.49 29.3386L39.87 31.8885L4.72999 22.0586Z" fill="#EA8B8B"/>
</g>
<path d="M39.26 37.0787L2.82001 26.8887L4.06001 16.4688L40.49 26.6588L39.26 37.0787Z" fill="url(#paint2_linear_2240_4)"/>
<path d="M77.21 34.4395L39.26 37.0795L40.49 26.6595L78.45 24.0195L77.21 34.4395Z" fill="url(#paint3_linear_2240_4)"/>
<path d="M40.5 26.6193L4.06 16.5192L42 13.9492L78.45 24.0593L40.5 26.6193Z" fill="url(#paint4_linear_2240_4)"/>
<path d="M59.39 70.1404L51.93 70.6404L57.3 25.3704L64.75 24.9004L59.39 70.1404Z" fill="url(#paint5_radial_2240_4)"/>
<path d="M13.02 65.6391L20.17 67.6991L25.54 22.4091L18.39 20.3691L13.02 65.6391Z" fill="url(#paint6_radial_2240_4)"/>
<path d="M54.79 17.4297L62.34 19.4396L25.54 22.4097L18.39 20.3697L54.79 17.4297Z" fill="url(#paint7_radial_2240_4)"/>
<path d="M29.91 14.709L22.07 15.169L57.3 25.439L64.75 24.879L29.91 14.709Z" fill="url(#paint8_radial_2240_4)"/>
<path d="M70.33 7.69879C69.7 5.56879 67.57 4.91882 67.57 4.91882C67.57 4.91882 65.76 4.59883 63.45 4.54883C63.87 6.44883 61.27 13.5888 54.4 15.5588C51.26 16.4588 47.17 16.8788 43.6 17.0688C42.66 18.0088 42.08 18.6188 42.08 18.6188L42.36 20.5088C42.36 20.5088 54.52 21.6188 61.33 18.8988C70.65 15.1788 70.84 9.4288 70.34 7.7088L70.33 7.69879Z" fill="#FF673E"/>
<path d="M37.56 18.6394C37.56 18.6394 44 13.8294 49.38 7.05945C56.29 -0.920554 66.14 3.1994 68.86 5.6994C67.36 4.3394 62.28 4.27943 59.56 7.72943C56.84 11.1794 51.76 18.6294 42.83 20.9094C38.05 20.4594 37.56 18.6394 37.56 18.6394Z" fill="white"/>
<path d="M37.9 18.6397C37.9 18.6397 44.34 13.8297 49.72 7.05974C56.63 -0.92026 66.67 3.54974 69.39 6.05974C67.89 4.69974 62.62 4.28973 59.9 7.73973C57.18 11.1897 52.1 18.6397 43.17 20.9197C38.39 20.4697 37.9 18.6497 37.9 18.6497V18.6397Z" fill="#FE9833"/>
<path d="M30.52 15.7505C31.55 17.3205 32.59 18.4705 33.57 19.3405C38.23 20.6205 42.74 21.0205 46.25 19.7705C46.25 19.7705 41.98 20.0505 37.81 13.7205C33.64 7.39048 29.93 2.19049 24.56 2.05049C22.75 2.00049 21.16 3.0805 20.15 4.6805C24.06 6.2305 27.14 10.6305 30.53 15.7605L30.52 15.7505Z" fill="#FF673E"/>
<path d="M23.11 15.3998C15.46 11.6298 18.85 1.89984 24.22 2.04984C25.22 2.07984 26.17 2.2798 27.07 2.6398C27.07 2.6398 19.59 -0.430194 14.13 0.269806C8.65998 0.969806 5.90998 8.37984 11.31 13.4898C16.39 18.2898 33.09 21.1098 39.9 20.4998C34.63 20.2298 28.51 18.0798 23.1 15.4098L23.11 15.3998Z" fill="white"/>
<path d="M23.44 15.3998C15.79 11.6298 19.18 1.89984 24.55 2.04984C25.55 2.07984 26.5 2.2798 27.4 2.6398C27.4 2.6398 19.92 -0.430194 14.46 0.269806C8.99 0.969806 6.24 8.37984 11.64 13.4898C16.72 18.2898 33.42 21.1098 40.23 20.4998C34.96 20.2298 28.84 18.0798 23.43 15.4098L23.44 15.3998Z" fill="#FE9833"/>
<path d="M38.02 14.0499C38.02 14.0499 40.85 17.8399 38.77 20.5699C43.22 21.9999 47.62 20.8999 48.3 20.4799C48.98 20.0599 48.48 13.8699 44.17 13.1699C41.49 14.5499 40.21 14.4799 38.02 14.0499Z" fill="#FFB05A"/>
<defs>
<linearGradient id="paint0_linear_2240_4" x1="1.87866" y1="44.5388" x2="38.0318" y2="48.5046" gradientUnits="userSpaceOnUse">
<stop stop-color="#C1272D"/>
<stop offset="0.62" stop-color="#A42126"/>
<stop offset="1" stop-color="#911D22"/>
</linearGradient>
<linearGradient id="paint1_linear_2240_4" x1="37.7056" y1="48.1763" x2="73.9681" y2="52.1541" gradientUnits="userSpaceOnUse">
<stop stop-color="#C1272D"/>
<stop offset="0.62" stop-color="#A42126"/>
<stop offset="1" stop-color="#911D22"/>
</linearGradient>
<linearGradient id="paint2_linear_2240_4" x1="3.03151" y1="24.7658" x2="40.2284" y2="28.8461" gradientUnits="userSpaceOnUse">
<stop stop-color="#C1272D"/>
<stop offset="0.62" stop-color="#A42126"/>
<stop offset="1" stop-color="#911D22"/>
</linearGradient>
<linearGradient id="paint3_linear_2240_4" x1="40.1727" y1="28.5289" x2="77.4889" y2="32.6223" gradientUnits="userSpaceOnUse">
<stop stop-color="#C1272D"/>
<stop offset="0.62" stop-color="#A42126"/>
<stop offset="1" stop-color="#911D22"/>
</linearGradient>
<linearGradient id="paint4_linear_2240_4" x1="4.05762" y1="16.2373" x2="78.3917" y2="24.3913" gradientUnits="userSpaceOnUse">
<stop stop-color="#C65155"/>
<stop offset="0.35" stop-color="#C33B40"/>
<stop offset="0.71" stop-color="#C12C31"/>
<stop offset="1" stop-color="#C1272D"/>
</linearGradient>
<radialGradient id="paint5_radial_2240_4" cx="0" cy="0" r="1" gradientUnits="userSpaceOnUse" gradientTransform="translate(66.3866 47.3318) rotate(5.79) scale(17.9741 16.677)">
<stop stop-color="#FEC185"/>
<stop offset="0.04" stop-color="#FEBC7B"/>
<stop offset="0.17" stop-color="#FEAF61"/>
<stop offset="0.32" stop-color="#FEA44C"/>
<stop offset="0.49" stop-color="#FE9D3E"/>
<stop offset="0.68" stop-color="#FE9935"/>
<stop offset="1" stop-color="#FE9833"/>
</radialGradient>
<radialGradient id="paint6_radial_2240_4" cx="0" cy="0" r="1" gradientUnits="userSpaceOnUse" gradientTransform="translate(27.5012 43.6137) rotate(5.78999) scale(18.0129 16.713)">
<stop stop-color="#FEC185"/>
<stop offset="0.04" stop-color="#FEBC7B"/>
<stop offset="0.17" stop-color="#FEAF61"/>
<stop offset="0.32" stop-color="#FEA44C"/>
<stop offset="0.49" stop-color="#FE9D3E"/>
<stop offset="0.68" stop-color="#FE9935"/>
<stop offset="1" stop-color="#FE9833"/>
</radialGradient>
<radialGradient id="paint7_radial_2240_4" cx="0" cy="0" r="1" gradientUnits="userSpaceOnUse" gradientTransform="translate(48.048 19.5363) rotate(5.78998) scale(15.617 14.4899)">
<stop stop-color="#FEC185"/>
<stop offset="0.04" stop-color="#FEBC7B"/>
<stop offset="0.17" stop-color="#FEAF61"/>
<stop offset="0.32" stop-color="#FEA44C"/>
<stop offset="0.49" stop-color="#FE9D3E"/>
<stop offset="0.68" stop-color="#FE9935"/>
<stop offset="1" stop-color="#FE9833"/>
</radialGradient>
<radialGradient id="paint8_radial_2240_4" cx="0" cy="0" r="1" gradientUnits="userSpaceOnUse" gradientTransform="translate(51.0781 19.6528) rotate(5.78999) scale(15.617 14.49)">
<stop stop-color="#FEC185"/>
<stop offset="0.04" stop-color="#FEBC7B"/>
<stop offset="0.17" stop-color="#FEAF61"/>
<stop offset="0.32" stop-color="#FEA44C"/>
<stop offset="0.49" stop-color="#FE9D3E"/>
<stop offset="0.68" stop-color="#FE9935"/>
<stop offset="1" stop-color="#FE9833"/>
</radialGradient>
</defs>
</svg>
